<?xml version="1.0" encoding="UTF-8" standalone="no"?>
<svg width="34px" height="102px" viewBox="0 0 34 102" version="1.1" xmlns="http://www.w3.org/2000/svg" xmlns:xlink="http://www.w3.org/1999/xlink" xmlns:sketch="http://www.bohemiancoding.com/sketch/ns">
    <!-- Generator: Sketch 3.5.1 (25234) - http://www.bohemiancoding.com/sketch -->
    <title>Gloss</title>
    <desc>Created with Sketch.</desc>
    <defs>
        <path id="path-1" d="M0,0.284 L33.801,0.284 L33.801,102 L0,102 L0,0.284 Z"></path>
    </defs>
    <g id="Accueil" stroke="none" stroke-width="1" fill="none" fill-rule="evenodd" sketch:type="MSPage">
        <g id="Desktop" sketch:type="MSArtboardGroup" transform="translate(-243.000000, -2288.000000)">
            <g id="Footer" sketch:type="MSLayerGroup" transform="translate(0.000000, 2204.000000)">
                <g id="Gloss" transform="translate(243.000000, 84.000000)">
                    <path d="M11.635,53.238 L1.528,53.238 L1.528,43.527 L11.635,43.527 L11.635,53.238 Z" id="Fill-1" fill="#333333" sketch:type="MSShapeGroup"></path>
                    <g id="Group-32">
                        <path d="M12.253,46.3975 C12.253,46.6195 12.07,46.7995 11.843,46.7995 L1.209,46.7995 C0.983,46.7995 0.8,46.6195 0.8,46.3975 C0.8,46.1755 0.983,45.9955 1.209,45.9955 L11.843,45.9955 C12.07,45.9955 12.253,46.1755 12.253,46.3975" id="Fill-2" fill="#1A1A1A" sketch:type="MSShapeGroup"></path>
                        <path d="M12.253,48.0073 C12.253,48.2293 12.07,48.4093 11.843,48.4093 L1.209,48.4093 C0.983,48.4093 0.8,48.2293 0.8,48.0073 C0.8,47.7843 0.983,47.6053 1.209,47.6053 L11.843,47.6053 C12.07,47.6053 12.253,47.7843 12.253,48.0073" id="Fill-4" fill="#1A1A1A" sketch:type="MSShapeGroup"></path>
                        <path d="M12.253,51.3872 C12.253,51.6102 12.07,51.7902 11.843,51.7902 L1.209,51.7902 C0.983,51.7902 0.8,51.6102 0.8,51.3872 C0.8,51.1652 0.983,50.9852 1.209,50.9852 L11.843,50.9852 C12.07,50.9852 12.253,51.1652 12.253,51.3872" id="Fill-6" fill="#1A1A1A" sketch:type="MSShapeGroup"></path>
                        <mask id="mask-2" sketch:name="Clip 9" fill="white">
                            <use xlink:href="#path-1"></use>
                        </mask>
                        <g id="Clip-9"></g>
                        <path d="M13.398,102 L0,102 L0,53.238 L13.398,53.238 L13.398,102 Z" id="Fill-8" fill="#D8778F" sketch:type="MSShapeGroup" mask="url(#mask-2)"></path>
                        <path d="M33.801,102 L20.403,102 L20.403,70.774 L33.801,70.774 L33.801,102 Z" id="Fill-10" fill="#D8778F" sketch:type="MSShapeGroup" mask="url(#mask-2)"></path>
                        <path d="M28.578,71.042 L24.606,71.042 L24.606,31.523 L28.578,31.523 L28.578,71.042 Z" id="Fill-11" fill="#1A1A1A" sketch:type="MSShapeGroup" mask="url(#mask-2)"></path>
                        <path d="M27.2725,30.5303 L24.7105,30.5303 C24.7105,30.5303 24.4495,10.1353 25.5465,2.8553 C25.5815,2.6313 25.8075,0.3383 26.5905,0.4993" id="Fill-12" fill="#4B4C4C" sketch:type="MSShapeGroup" mask="url(#mask-2)"></path>
                        <path d="M26.6172,30.5303 L28.3412,30.5303 C28.3412,30.5303 28.6032,10.1353 27.5052,2.8553 C27.4712,2.6313 27.2442,0.3383 26.4602,0.4993" id="Fill-13" fill="#4B4C4C" sketch:type="MSShapeGroup" mask="url(#mask-2)"></path>
                        <path d="M27.324,30.478 L25.756,30.478 L25.756,31.523 L27.324,31.523 L27.324,30.478 Z" id="Fill-14" fill="#1A1A1A" sketch:type="MSShapeGroup" mask="url(#mask-2)"></path>
                        <path d="M27.568,0.922 L25.586,0.922 L25.586,0.284 L27.568,0.284 L27.568,0.922 Z" id="Fill-15" fill="#1A1A1A" sketch:type="MSShapeGroup" mask="url(#mask-2)"></path>
                        <path d="M28.226,2.458 L25.025,2.458 L25.025,1.82 L28.226,1.82 L28.226,2.458 Z" id="Fill-16" fill="#1A1A1A" sketch:type="MSShapeGroup" mask="url(#mask-2)"></path>
                        <path d="M28.556,4.372 L24.514,4.372 L24.514,3.734 L28.556,3.734 L28.556,4.372 Z" id="Fill-17" fill="#1A1A1A" sketch:type="MSShapeGroup" mask="url(#mask-2)"></path>
                        <path d="M28.937,6.254 L24.056,6.254 L24.056,5.616 L28.937,5.616 L28.937,6.254 Z" id="Fill-18" fill="#1A1A1A" sketch:type="MSShapeGroup" mask="url(#mask-2)"></path>
                        <path d="M29.391,8.135 L23.598,8.135 L23.598,7.498 L29.391,7.498 L29.391,8.135 Z" id="Fill-19" fill="#1A1A1A" sketch:type="MSShapeGroup" mask="url(#mask-2)"></path>
                        <path d="M29.973,10.017 L23.378,10.017 L23.378,9.379 L29.973,9.379 L29.973,10.017 Z" id="Fill-20" fill="#1A1A1A" sketch:type="MSShapeGroup" mask="url(#mask-2)"></path>
                        <path d="M30.275,11.899 L22.976,11.899 L22.976,11.262 L30.275,11.262 L30.275,11.899 Z" id="Fill-21" fill="#1A1A1A" sketch:type="MSShapeGroup" mask="url(#mask-2)"></path>
                        <path d="M30.58,13.781 L22.671,13.781 L22.671,13.144 L30.58,13.144 L30.58,13.781 Z" id="Fill-22" fill="#1A1A1A" sketch:type="MSShapeGroup" mask="url(#mask-2)"></path>
                        <path d="M30.618,15.663 L22.613,15.663 L22.613,15.025 L30.618,15.025 L30.618,15.663 Z" id="Fill-23" fill="#1A1A1A" sketch:type="MSShapeGroup" mask="url(#mask-2)"></path>
                        <path d="M24.658,29.845 L28.431,29.845 L28.431,30.482 L24.658,30.482 L24.658,29.845 Z" id="Fill-24" fill="#1A1A1A" sketch:type="MSShapeGroup" mask="url(#mask-2)"></path>
                        <path d="M24.463,27.963 L28.503,27.963 L28.503,28.601 L24.463,28.601 L24.463,27.963 Z" id="Fill-25" fill="#1A1A1A" sketch:type="MSShapeGroup" mask="url(#mask-2)"></path>
                        <path d="M24.08,26.081 L28.959,26.081 L28.959,26.719 L24.08,26.719 L24.08,26.081 Z" id="Fill-26" fill="#1A1A1A" sketch:type="MSShapeGroup" mask="url(#mask-2)"></path>
                        <path d="M23.547,24.199 L29.34,24.199 L29.34,24.837 L23.547,24.837 L23.547,24.199 Z" id="Fill-27" fill="#1A1A1A" sketch:type="MSShapeGroup" mask="url(#mask-2)"></path>
                        <path d="M23.279,22.317 L29.873,22.317 L29.873,22.954 L23.279,22.954 L23.279,22.317 Z" id="Fill-28" fill="#1A1A1A" sketch:type="MSShapeGroup" mask="url(#mask-2)"></path>
                        <path d="M22.898,20.436 L30.198,20.436 L30.198,21.074 L22.898,21.074 L22.898,20.436 Z" id="Fill-29" fill="#1A1A1A" sketch:type="MSShapeGroup" mask="url(#mask-2)"></path>
                        <path d="M22.594,18.553 L30.503,18.553 L30.503,19.191 L22.594,19.191 L22.594,18.553 Z" id="Fill-30" fill="#1A1A1A" sketch:type="MSShapeGroup" mask="url(#mask-2)"></path>
                        <path d="M22.556,16.671 L30.56,16.671 L30.56,17.309 L22.556,17.309 L22.556,16.671 Z" id="Fill-31" fill="#1A1A1A" sketch:type="MSShapeGroup" mask="url(#mask-2)"></path>
                    </g>
                </g>
            </g>
        </g>
    </g>
</svg>