<?xml version="1.0" encoding="UTF-8" standalone="no"?>
<svg width="111px" height="163px" viewBox="0 0 111 163" version="1.1" xmlns="http://www.w3.org/2000/svg" xmlns:xlink="http://www.w3.org/1999/xlink" xmlns:sketch="http://www.bohemiancoding.com/sketch/ns">
    <title>Miroir</title>
    <desc>Created with Sketch.</desc>
    <defs>
        <path id="path-1" d="M0.460457152,38.1336522 C0.460457152,59.0269565 17.1555969,75.9652826 37.7507261,75.9652826 L37.7507261,75.9652826 C58.344353,75.9652826 75.0379904,59.0269565 75.0379904,38.1336522 L75.0379904,38.1336522 C75.0379904,17.2396304 58.344353,0.301304348 37.7507261,0.301304348 L37.7507261,0.301304348 C17.1555969,0.301304348 0.460457152,17.2396304 0.460457152,38.1336522 L0.460457152,38.1336522 Z"></path>
        <path id="path-3" d="M0.460457152,38.1336522 C0.460457152,59.0269565 17.1555969,75.9652826 37.7507261,75.9652826 L37.7507261,75.9652826 C58.344353,75.9652826 75.0379904,59.0269565 75.0379904,38.1336522 L75.0379904,38.1336522 C75.0379904,17.2396304 58.344353,0.301304348 37.7507261,0.301304348 L37.7507261,0.301304348 C17.1555969,0.301304348 0.460457152,17.2396304 0.460457152,38.1336522 L0.460457152,38.1336522 Z"></path>
        <path id="path-5" d="M0.460457152,38.1336522 C0.460457152,59.0269565 17.1555969,75.9652826 37.7507261,75.9652826 L37.7507261,75.9652826 C58.344353,75.9652826 75.0379904,59.0269565 75.0379904,38.1336522 L75.0379904,38.1336522 C75.0379904,17.2396304 58.344353,0.301304348 37.7507261,0.301304348 L37.7507261,0.301304348 C17.1555969,0.301304348 0.460457152,17.2396304 0.460457152,38.1336522 L0.460457152,38.1336522 Z"></path>
    </defs>
    <g id="Contact" stroke="none" stroke-width="1" fill="none" fill-rule="evenodd" sketch:type="MSPage">
        <g id="Desktop" sketch:type="MSArtboardGroup" transform="translate(-72.000000, -376.000000)">
            <g id="Header" sketch:type="MSLayerGroup" transform="translate(72.048780, 376.000000)">
                <g id="Miroir" transform="translate(0.000000, 0.000000)">
                    <g id="Group-9" transform="translate(0.000000, 0.152174)" sketch:type="MSShapeGroup">
                        <path d="M0,43.1485761 L105.664776,43.1485761 C108.522164,43.1485761 110.838722,45.214663 110.838722,47.7649891 C110.838722,50.3153152 108.522164,52.3806848 105.664776,52.3806848 L0,52.3806848" id="Fill-1" fill="#E1A99E"></path>
                        <path d="M9.32962808,45.3074217 C9.32962808,20.5430739 29.116516,0.469747826 53.5245009,0.469747826 C77.9317345,0.469747826 97.7186225,20.5430739 97.7186225,45.3074217 C97.7186225,70.0696174 77.9317345,90.1436609 53.5245009,90.1436609 C29.116516,90.1436609 9.32962808,70.0696174 9.32962808,45.3074217" id="Fill-3" fill="#E1A99E"></path>
                        <path d="M0.352891958,52.2844826 L4.49550402,52.2844826 C4.49550402,77.6119826 26.3345436,98.2161783 53.1785195,98.2161783 C80.0224955,98.2161783 101.861535,77.6119826 101.861535,52.2844826 L106.004147,52.2844826 C106.004147,79.7935696 82.3075047,102.174026 53.1785195,102.174026 C24.0502855,102.174026 0.352891958,79.7935696 0.352891958,52.2844826" id="Fill-5" fill="#C3BAB2"></path>
                        <path d="M16.2352835,45.3074217 C16.2352835,24.4134 32.9296721,7.4757913 53.5248013,7.4757913 C74.1184282,7.4757913 90.8120657,24.4134 90.8120657,45.3074217 C90.8120657,66.2007261 74.1184282,83.1383348 53.5248013,83.1383348 C32.9296721,83.1383348 16.2352835,66.2007261 16.2352835,45.3074217" id="Fill-7" fill="#E1EFEF"></path>
                    </g>
                    <g id="Group-19" transform="translate(15.774225, 7.326087)">
                        <g id="Group-12" transform="translate(0.000000, 0.000000)">
                            <mask id="mask-2" sketch:name="Clip 11" fill="white">
                                <use xlink:href="#path-1"></use>
                            </mask>
                            <g id="Clip-11"></g>
                            <path d="M-7.13558355,40.2611478 L48.7975664,-9.20154783 L59.1559745,-1.28800435 L-5.06390194,53.4518217 L-7.13558355,40.2611478 Z" id="Fill-10" fill="#F6F8F8" sketch:type="MSShapeGroup" mask="url(#mask-2)"></path>
                        </g>
                        <g id="Group-15" transform="translate(0.000000, 0.000000)">
                            <mask id="mask-4" sketch:name="Clip 14" fill="white">
                                <use xlink:href="#path-3"></use>
                            </mask>
                            <g id="Clip-14"></g>
                            <path d="M1.84197884,57.4080913 L62.608051,3.98898261 L67.4417244,7.94539565 L5.29428075,62.6845043 L1.84197884,57.4080913 Z" id="Fill-13" fill="#F6F8F8" sketch:type="MSShapeGroup" mask="url(#mask-4)"></path>
                        </g>
                        <g id="Group-18" transform="translate(0.000000, 0.000000)">
                            <mask id="mask-6" sketch:name="Clip 17" fill="white">
                                <use xlink:href="#path-5"></use>
                            </mask>
                            <g id="Clip-17"></g>
                            <path d="M10.1284799,65.3222087 L70.8945521,11.9031 L73.657295,13.8802304 L11.5083491,68.6200565 L10.1284799,65.3222087 Z" id="Fill-16" fill="#F6F8F8" sketch:type="MSShapeGroup" mask="url(#mask-6)"></path>
                        </g>
                    </g>
                    <g id="Group-23" transform="translate(24.121951, 87.000000)" fill="#E1A99E" sketch:type="MSShapeGroup">
                        <path d="M32.8545511,61.4893261 L22.4968942,61.4893261 L22.4968942,0.816673913 L32.8545511,0.816673913 L32.8545511,61.4893261 Z" id="Fill-20"></path>
                        <path d="M0.399532927,76 L0.399532927,76 C0.399532927,66.1652826 8.74635165,58.192913 19.0439162,58.192913 L36.9979894,58.192913 C47.295554,58.192913 55.6423727,66.1652826 55.6423727,76" id="Fill-22"></path>
                    </g>
                </g>
            </g>
        </g>
    </g>
</svg>
