<?xml version="1.0" encoding="UTF-8" standalone="no"?>
<svg width="160px" height="50px" viewBox="0 0 160 50" version="1.1" xmlns="http://www.w3.org/2000/svg" xmlns:xlink="http://www.w3.org/1999/xlink" xmlns:sketch="http://www.bohemiancoding.com/sketch/ns">
    <title>Sticker</title>
    <g id="Accueil" stroke="none" stroke-width="1" fill="none" fill-rule="evenodd" sketch:type="MSPage">
        <g id="Desktop" sketch:type="MSArtboardGroup" transform="translate(-791.000000, -331.000000)">
            <g id="Aside" sketch:type="MSLayerGroup" transform="translate(755.000000, 331.000000)">
                <g id="Sticker" transform="translate(36.000000, 0.000000)" sketch:type="MSShapeGroup">
                    <g id="Group">
                        <g id="objects">
                            <g id="Group">
                                <g id="SVGID_1_-link" fill="#F1D4E2" opacity="0.66">
                                    <g>
                                        <path d="M160,31.6666667 L159,30.952381 L157.875,30.2380952 L158.75,29.2857143 L159.625,28.3333333 L159.625,28.2142857 L158.625,27.5 L157.5,26.7857143 L158.375,25.8333333 L159.375,24.8809524 L159.375,24.8809524 L158.25,24.1666667 L157.125,23.452381 L158.125,22.5 L159,21.547619 L159,21.4285714 L157.875,20.7142857 L156.875,20 L157.75,19.047619 L158.625,18.0952381 L158.625,18.0952381 L157.5,17.3809524 L156.5,16.6666667 L157.375,15.7142857 L158.25,14.7619048 L158.25,14.6428571 L157.25,13.9285714 L156.125,13.2142857 L157,12.2619048 L158,11.4285714 L158,11.3095238 L156.875,10.5952381 L155.75,9.88095238 L156.75,8.92857143 L157.625,7.97619048 L157.625,7.85714286 L156.5,7.14285714 L155.5,6.42857143 L156.375,5.47619048 L157.25,4.64285714 L157.25,4.52380952 L156.125,3.80952381 L155.125,3.0952381 L156,2.14285714 L156.875,1.19047619 L156.875,1.19047619 L155.875,0.357142857 L155.25,0 L155.25,0 L154.125,0.119047619 L1.25,15.7142857 L1.25,15.7142857 L0.875,16.0714286 L0,17.0238095 L0,17.0238095 L1.125,17.8571429 L2.125,18.5714286 L1.25,19.4047619 L0.375,20.3571429 L0.375,20.4761905 L1.375,21.1904762 L2.5,21.9047619 L1.625,22.8571429 L0.75,23.8095238 L0.75,23.8095238 L1.75,24.5238095 L2.875,25.3571429 L2,26.1904762 L1,27.1428571 L1,27.2619048 L2.125,27.9761905 L3.25,28.6904762 L2.25,29.6428571 L1.375,30.5952381 L1.375,30.5952381 L2.5,31.3095238 L3.5,32.0238095 L2.625,32.9761905 L1.75,33.9285714 L1.75,34.047619 L2.75,34.7619048 L3.875,35.4761905 L3,36.4285714 L2.125,37.3809524 L2.125,37.3809524 L3.125,38.0952381 L4.25,38.8095238 L3.375,39.7619048 L2.375,40.7142857 L2.375,40.8333333 L3.5,41.547619 L4.625,42.2619048 L3.625,43.2142857 L2.75,44.1666667 L2.75,44.1666667 L3.875,44.8809524 L4.875,45.5952381 L4,46.547619 L3.125,47.5 L3.125,47.6190476 L4.125,48.3333333 L5.25,49.047619 L158.5,33.2142857 L158.5,33.2142857 L159.125,32.6190476 L160,31.6666667 L160,31.6666667 Z" id="SVGID_1_"></path>
                                    </g>
                                </g>
                                <g id="Shape" fill="#EF859E">
                                    <path d="M153.875,9.88095238 L148.625,14.8809524 L148.625,14.8809524 L133.625,29.1666667 L128.375,34.047619 L125.75,36.6666667 L127.75,36.4285714 L127.75,36.4285714 L128.375,35.7142857 L134.5,30 L155.625,9.88095238 L157.625,7.97619048 L157.625,7.97619048 L157.625,7.85714286 L156.625,7.26190476 L153.875,9.88095238 Z"></path>
                                    <path d="M157.625,20.5952381 L142.5,34.8809524 L144.5,34.7619048 L158.625,21.1904762 L157.875,20.7142857 L157.625,20.5952381 Z"></path>
                                    <path d="M158.125,27.2619048 L150.875,34.047619 L152.875,33.8095238 L159.125,27.8571429 L158.625,27.5 L158.125,27.2619048 Z"></path>
                                    <path d="M128.375,12.6190476 L126.125,14.8809524 L126.125,14.8809524 L100.5,39.1666667 L102.5,39.047619 L119.5,22.8571429 L119.5,22.8571429 L128.375,14.2857143 L133.125,9.88095238 L134.5,8.57142857 L142,1.42857143 L142,1.42857143 L142,1.30952381 L140,1.54761905 L131.375,9.88095238 L128.375,12.6190476 Z"></path>
                                    <path d="M133.625,14.8809524 L133.625,14.8809524 L133.625,14.8809524 L128.375,19.7619048 L108.875,38.3333333 L110.875,38.2142857 L119.5,30 L119.5,30 L128.375,21.4285714 L134.5,15.7142857 L140.625,9.88095238 L149.5,1.42857143 L149.5,1.42857143 L150.5,0.476190476 L148.5,0.714285714 L138.875,9.88095238 L133.625,14.8809524 Z"></path>
                                    <path d="M141.125,14.8809524 L141.125,14.8809524 L133.625,22.0238095 L128.375,26.9047619 L117.25,37.5 L119.25,37.2619048 L119.5,37.1428571 L119.5,37.1428571 L128.375,28.5714286 L134.5,22.8571429 L148.125,9.88095238 L155.125,3.0952381 L155.125,3.0952381 L155.125,3.0952381 L156,2.14285714 L156.875,1.19047619 L156.875,1.19047619 L156.125,0.595238095 L146.375,9.88095238 L141.125,14.8809524 Z"></path>
                                    <path d="M157.125,13.9285714 L156.125,14.8809524 L156.125,14.8809524 L134.125,35.7142857 L136.125,35.5952381 L158.125,14.6428571 L158.125,14.6428571 L157.25,13.9285714 L157.125,13.9285714 Z"></path>
                                    <path d="M43.625,22.0238095 L38.375,26.9047619 L16.375,47.8571429 L18.375,47.6190476 L29.5,37.1428571 L29.5,37.1428571 L38.375,28.5714286 L44.5,22.8571429 L58,9.88095238 L58,9.88095238 L56.125,10.1190476 L51.125,14.8809524 L51.125,14.8809524 L43.625,22.0238095 Z"></path>
                                    <path d="M43.625,29.1666667 L38.375,34.047619 L24.875,47.0238095 L26.875,46.7857143 L29.5,44.2857143 L29.5,44.2857143 L38.375,35.7142857 L44.5,30 L65.625,9.88095238 L66.5,9.04761905 L66.5,9.04761905 L64.5,9.28571429 L63.875,9.88095238 L58.625,14.8809524 L58.625,14.8809524 L43.625,29.1666667 Z"></path>
                                    <path d="M118.625,14.8809524 L118.625,14.8809524 L92.125,40.1190476 L94.125,39.8809524 L125.625,9.88095238 L128.375,7.14285714 L132.75,2.97619048 L133.625,2.14285714 L133.625,2.14285714 L133.625,2.14285714 L131.625,2.38095238 L131.625,2.38095238 L128.375,5.47619048 L123.875,9.88095238 L118.625,14.8809524 Z"></path>
                                    <path d="M66.125,14.8809524 L43.625,36.3095238 L38.375,41.1904762 L33.25,46.0714286 L35.25,45.952381 L35.25,45.952381 L38.375,42.8571429 L44.5,37.1428571 L73.125,9.88095238 L74.875,8.21428571 L74.875,8.21428571 L72.875,8.33333333 L71.375,9.88095238 L66.125,14.8809524 L66.125,14.8809524 Z"></path>
                                    <path d="M73.625,14.8809524 L43.625,43.452381 L41.625,45.2380952 L43.625,45.1190476 L44.5,44.2857143 L80.625,9.88095238 L83.25,7.38095238 L83.25,7.38095238 L81.25,7.5 L78.875,9.88095238"></path>
                                    <path d="M81.125,14.8809524 L50,44.4047619 L52,44.1666667 L88.125,9.88095238 L91.625,6.42857143 L91.625,6.42857143 L89.625,6.66666667 L86.375,9.88095238 L81.125,14.8809524 L81.125,14.8809524 Z"></path>
                                    <path d="M88.625,14.8809524 L58.5,43.5714286 L60.5,43.3333333 L95.625,9.88095238 L100,5.5952381 L100,5.5952381 L98.125,5.83333333 L93.875,9.88095238 L88.625,14.8809524 L88.625,14.8809524 Z"></path>
                                    <path d="M96.125,14.8809524 L66.875,42.6190476 L68.875,42.5 L103.125,9.88095238 L108.5,4.76190476 L108.5,4.76190476 L106.5,5 L101.375,9.88095238 L96.125,14.8809524 L96.125,14.8809524 Z"></path>
                                    <path d="M103.625,14.8809524 L75.25,41.7857143 L77.25,41.6666667 L110.625,9.88095238 L116.875,3.92857143 L116.875,3.92857143 L114.875,4.16666667 L108.875,9.88095238 L103.625,14.8809524 L103.625,14.8809524 Z"></path>
                                    <path d="M111.125,14.8809524 L111.125,14.8809524 L83.625,40.952381 L85.625,40.7142857 L118.125,9.88095238 L119.5,8.57142857 L125.25,3.0952381 L125.25,3.0952381 L123.25,3.21428571 L116.375,9.88095238 L111.125,14.8809524 Z"></path>
                                    <path d="M29.5,22.8571429 L38.375,14.2857143 L41.25,11.6666667 L41.25,11.6666667 L39.25,11.7857143 L38.375,12.6190476 L36.125,14.8809524 L36.125,14.8809524 L4.25,45.2380952 L4.875,45.5952381 L4,46.547619 L3.125,47.5 L3.125,47.6190476 L3.375,47.7380952 L29.5,22.8571429 L29.5,22.8571429 Z"></path>
                                    <path d="M7.625,15 L7.625,15 L6.5,15.1190476 L5.625,15.2380952 L1.25,19.4047619 L1.25,19.4047619 L0.375,20.3571429 L0.375,20.4761905 L1.25,21.0714286 L7.625,15 Z"></path>
                                    <path d="M16.125,14.1666667 L16,14.1666667 L14.125,14.4047619 L13.625,14.8809524 L13.625,14.8809524 L2.75,25.2380952 L2.875,25.3571429 L2,26.1904762 L1,27.1428571 L1,27.2619048 L1.75,27.7380952 L16.125,14.1666667 Z"></path>
                                    <path d="M24.5,13.3333333 L22.5,13.5714286 L21.125,14.8809524 L21.125,14.8809524 L3.25,31.9047619 L3.5,32.0238095 L2.625,32.9761905 L1.75,33.9285714 L1.75,34.047619 L2.375,34.4047619 L24.5,13.3333333 L24.5,13.3333333 Z"></path>
                                    <path d="M32.875,12.5 L30.875,12.6190476 L30.875,12.6190476 L28.625,14.8809524 L28.625,14.8809524 L3.75,38.5714286 L4.25,38.8095238 L3.375,39.7619048 L2.375,40.7142857 L2.375,40.8333333 L2.875,41.0714286 L32.875,12.5 L32.875,12.5 Z"></path>
                                    <path d="M29.5,30 L29.5,30 L38.375,21.4285714 L44.5,15.7142857 L49.625,10.7142857 L49.625,10.7142857 L47.625,10.952381 L43.625,14.8809524 L43.625,14.8809524 L43.625,14.8809524 L38.375,19.7619048 L8,48.6904762 L10,48.5714286 L29.5,30 Z"></path>
                                </g>
                            </g>
                        </g>
                    </g>
                </g>
            </g>
        </g>
    </g>
</svg>
