<?xml version="1.0" encoding="iso-8859-1"?>
<!DOCTYPE svg PUBLIC "-//W3C//DTD SVG 1.1//EN" "http://www.w3.org/Graphics/SVG/1.1/DTD/svg11.dtd">
<svg xmlns="http://www.w3.org/2000/svg" xmlns:xlink="http://www.w3.org/1999/xlink" version="1.1" viewBox="0 0 475.839 475.839" enable-background="new 0 0 475.839 475.839" width="512px" height="512px">
  <path d="m472.91,133.432l-87.224-87.224c-14.631-14.63-37.856-15.94-54.025-3.047-118.279,94.309-226.276,201.936-320.99,319.889-15.458,19.251-13.967,46.918 3.471,64.355 9.15,9.15 21.278,14.135 33.989,14.135 2.047,0 4.111-0.129 6.178-0.392 14.906-1.89 27.836-10.398 35.474-23.341 22.121-37.484 57.805-92.692 102.179-142.833 10.43-11.786 27.957-13.159 40.047-3.201l35.15,35.15c1.953,1.953 4.512,2.929 7.071,2.929s5.119-0.976 7.071-2.929c3.905-3.905 3.905-10.237 0-14.142l-62.697-62.697c3.096-3.042 6.205-6.075 9.324-9.1l57.203,57.203c1.464,1.465 3.384,2.197 5.303,2.197 1.919,0 3.839-0.732 5.303-2.197 2.929-2.929 2.929-7.677 0-10.606l-57.001-57.001c2.891-2.762 5.787-5.519 8.696-8.266l53.792,53.792c1.464,1.465 3.384,2.197 5.303,2.197s3.839-0.732 5.303-2.197c2.929-2.929 2.929-7.677 0-10.606l-53.45-53.45c2.931-2.727 5.864-5.453 8.813-8.164l51.721,51.721c1.464,1.465 3.384,2.197 5.303,2.197s3.839-0.732 5.303-2.197c2.929-2.929 2.929-7.677 0-10.606l-51.235-51.235c2.969-2.69 5.953-5.365 8.938-8.038l50.911,50.911c1.464,1.465 3.384,2.197 5.303,2.197s3.839-0.732 5.303-2.197c2.929-2.929 2.929-7.677 0-10.606l-50.286-50.286c3.004-2.651 6.018-5.29 9.038-7.924l51.392,51.392c1.464,1.465 3.384,2.197 5.303,2.197s3.839-0.732 5.303-2.197c2.929-2.929 2.929-7.677 0-10.606l-50.626-50.626c3.045-2.616 6.094-5.225 9.154-7.822l53.221,53.221c1.464,1.465 3.384,2.197 5.303,2.197s3.839-0.732 5.303-2.197c2.929-2.929 2.929-7.677 0-10.606l-52.315-52.315c3.083-2.578 6.168-5.153 9.265-7.712l56.469,56.469c1.464,1.465 3.384,2.197 5.303,2.197s3.839-0.732 5.303-2.197c2.929-2.929 2.929-7.677 0-10.606l-55.419-55.419c3.122-2.541 6.256-5.065 9.391-7.586l61.229,61.229c1.464,1.465 3.384,2.197 5.303,2.197s3.839-0.732 5.303-2.197c2.929-2.929 2.929-7.677 0-10.606l-60.036-60.036c2.93-2.32 5.867-4.63 8.808-6.932l68.315,68.315c3.905,3.905 10.238,3.905 14.142,0 3.909-3.908 3.909-10.24 0.004-14.145zm-295.926,128.288c-45.425,51.329-81.86,107.685-104.426,145.923-4.472,7.578-12.041,12.558-20.766,13.665-8.722,1.104-17.291-1.826-23.509-8.045-10.208-10.208-11.075-26.411-2.018-37.69 45.745-56.969 94.627-111.497 146.285-163.258l33.484,33.484c-11.231,1.759-21.432,7.314-29.05,15.921zm27.479-45.777l-17.722-17.722c50.032-49.158 102.596-95.734 157.388-139.423 8.203-6.54 19.989-5.874 27.414,1.552l4.661,4.661c-59.874,46.99-117.565,97.692-171.741,150.932z" fill="#d8778f"/>
</svg>
