<?xml version="1.0" encoding="UTF-8" standalone="no"?>
<svg width="18px" height="34px" viewBox="0 0 18 34" version="1.1" xmlns="http://www.w3.org/2000/svg" xmlns:xlink="http://www.w3.org/1999/xlink" xmlns:sketch="http://www.bohemiancoding.com/sketch/ns">
    <!-- Generator: Sketch 3.5.1 (25234) - http://www.bohemiancoding.com/sketch -->
    <title>Shape</title>
    <desc>Created with Sketch.</desc>
    <defs></defs>
    <g id="Accueil" stroke="none" stroke-width="1" fill="none" fill-rule="evenodd" sketch:type="MSPage">
        <g id="Desktop" sketch:type="MSArtboardGroup" transform="translate(-921.000000, -847.000000)" fill="#ECB7AC">
            <g id="Aside" sketch:type="MSLayerGroup" transform="translate(755.000000, 331.000000)">
                <g id="Social" transform="translate(17.000000, 503.000000)" sketch:type="MSShapeGroup">
                    <g id="Facebook" transform="translate(124.000000, 0.000000)">
                        <path d="M29.1363636,20.4792432 L29.1363636,24.9090909 L29.6363636,24.4090909 L26,24.4090909 L25.5,24.4090909 L25.5,24.9090909 L25.5,30.7272727 L25.5,31.2272727 L26,31.2272727 L29.6363636,31.2272727 L29.1363636,30.7272727 L29.1363636,46 L29.1363636,46.5 L29.6363636,46.5 L36.1818182,46.5 L36.6818182,46.5 L36.6818182,46 L36.6818182,30.7272727 L36.1818182,31.2272727 L41.1520719,31.2272727 L41.5827677,31.2272727 L41.6465574,30.801327 C41.6706269,30.6406071 41.7124784,30.3475727 41.766187,29.948287 C41.8555944,29.2836052 41.9449833,28.5649294 42.0284282,27.8182452 C42.1394767,26.8245577 42.2313593,25.8575119 42.297569,24.9452859 L42.3364862,24.4090909 L41.7988808,24.4090909 L36.1818182,24.4090909 L36.6818182,24.9090909 L36.6818182,21.2134081 C36.6818182,20.9537574 37.5277958,20.3181818 38.0295452,20.3181818 L42,20.3181818 L42.5,20.3181818 L42.5,19.8181818 L42.5,14 L42.5,13.5 L42,13.5 L36.671248,13.5 C33.0440588,13.5 30.8277811,14.8394145 29.7843193,17.0808858 C29.4887809,17.715735 29.30638,18.38761 29.2121096,19.0809513 C29.1479913,19.5525303 29.1328144,19.9179807 29.1359174,20.3911158 C29.1362581,20.4411619 29.1362581,20.4411619 29.1363636,20.4792432 L29.1363636,20.4792432 Z M30.1363636,20.4792432 C30.1362407,20.4347622 30.1362407,20.4347622 30.1358959,20.3845575 C30.12901,19.3346219 30.2489901,18.4521897 30.6908986,17.5029214 C31.5661581,15.6227671 33.4239576,14.5 36.671248,14.5 L42,14.5 L41.5,14 L41.5,19.8181818 L42,19.3181818 L38.0295452,19.3181818 C37.0275659,19.3181818 35.6818182,20.3292303 35.6818182,21.2134081 L35.6818182,24.9090909 L35.6818182,25.4090909 L36.1818182,25.4090909 L41.7988808,25.4090909 L41.3001926,24.872896 C41.2349979,25.7711375 41.1443129,26.7255785 41.0346148,27.7071827 C40.9520505,28.4459874 40.8635724,29.1573402 40.7751128,29.814976 C40.7221011,30.2090807 40.6809481,30.4972241 40.6575863,30.6532184 L41.1520719,30.2272727 L36.1818182,30.2272727 L35.6818182,30.2272727 L35.6818182,30.7272727 L35.6818182,46 L36.1818182,45.5 L29.6363636,45.5 L30.1363636,46 L30.1363636,30.7272727 L30.1363636,30.2272727 L29.6363636,30.2272727 L26,30.2272727 L26.5,30.7272727 L26.5,24.9090909 L26,25.4090909 L29.6363636,25.4090909 L30.1363636,25.4090909 L30.1363636,24.9090909 L30.1363636,20.4792432 L30.1363636,20.4792432 Z" id="Shape"></path>
                    </g>
                </g>
            </g>
        </g>
    </g>
</svg>