<?xml version="1.0" encoding="UTF-8" standalone="no"?>
<svg width="38px" height="25px" viewBox="0 0 38 25" version="1.1" xmlns="http://www.w3.org/2000/svg" xmlns:xlink="http://www.w3.org/1999/xlink" xmlns:sketch="http://www.bohemiancoding.com/sketch/ns">
    <!-- Generator: Sketch 3.5.1 (25234) - http://www.bohemiancoding.com/sketch -->
    <title>google-plus</title>
    <desc>Created with Sketch.</desc>
    <defs></defs>
    <g id="Accueil" stroke="none" stroke-width="1" fill="none" fill-rule="evenodd" sketch:type="MSPage">
        <g id="Desktop" sketch:type="MSArtboardGroup" transform="translate(-908.000000, -1083.000000)" stroke="#ECB7AC">
            <g id="google-plus" sketch:type="MSLayerGroup" transform="translate(909.000000, 1083.000000)">
                <g id="Layer_1" sketch:type="MSShapeGroup">
                    <g id="Group">
                        <path d="M12.5096688,14.6147594 L18.0802368,14.6147594 C17.1024268,17.3792687 14.4541623,19.3613433 11.3537569,19.3384678 C7.59183013,19.3106905 4.48123197,16.3012424 4.33518683,12.5420388 C4.17863764,8.51245337 7.41147177,5.18430476 11.4068996,5.18430476 C13.2337477,5.18430476 14.9008566,5.88037287 16.1576851,7.02095665 C16.4553776,7.29118296 16.9085299,7.29289473 17.2013204,7.01729969 L19.247353,5.09163573 C19.5672984,4.79044194 19.5684656,4.28181269 19.2494538,3.97960739 C17.2562527,2.09129115 14.5824673,0.914293349 11.6339426,0.856715615 C5.34505359,0.733934989 0.0440895222,5.89017665 0.000283759997,12.180155 C-0.0439110409,18.5173627 5.07996259,23.6683912 11.4068996,23.6683912 C17.4913877,23.6683912 22.4619023,18.9043006 22.7948416,12.9030668 C22.8037117,12.8278267 22.8095473,10.2849917 22.8095473,10.2849917 L12.5096688,10.2849917 C12.087484,10.2849917 11.7452855,10.6271902 11.7452855,11.049375 L11.7452855,13.8503761 C11.7452855,14.272561 12.0875618,14.6147594 12.5096688,14.6147594 L12.5096688,14.6147594 Z" id="Shape"></path>
                        <path d="M32.2191916,10.5535207 L32.2191916,7.8167888 C32.2191916,7.44681296 31.9193205,7.1469419 31.5493447,7.1469419 L29.2459241,7.1469419 C28.8759483,7.1469419 28.5760772,7.44681296 28.5760772,7.8167888 L28.5760772,10.5535207 L25.8393453,10.5535207 C25.4693694,10.5535207 25.1694984,10.8533918 25.1694984,11.2233676 L25.1694984,13.5267882 C25.1694984,13.896764 25.4693694,14.1966351 25.8393453,14.1966351 L28.5760772,14.1966351 L28.5760772,16.933367 C28.5760772,17.3033429 28.8759483,17.6032139 29.2459241,17.6032139 L31.5493447,17.6032139 C31.9193205,17.6032139 32.2191916,17.3033429 32.2191916,16.933367 L32.2191916,14.1966351 L34.9559235,14.1966351 C35.3258993,14.1966351 35.6257704,13.896764 35.6257704,13.5267882 L35.6257704,11.2233676 C35.6257704,10.8533918 35.3258993,10.5535207 34.9559235,10.5535207 L32.2191916,10.5535207 L32.2191916,10.5535207 L32.2191916,10.5535207 Z" id="Shape"></path>
                    </g>
                </g>
            </g>
        </g>
    </g>
</svg>