<?xml version="1.0" encoding="UTF-8" standalone="no"?>
<svg width="37px" height="35px" viewBox="0 0 37 35" version="1.1" xmlns="http://www.w3.org/2000/svg" xmlns:xlink="http://www.w3.org/1999/xlink" xmlns:sketch="http://www.bohemiancoding.com/sketch/ns">
    <!-- Generator: Sketch 3.5.1 (25234) - http://www.bohemiancoding.com/sketch -->
    <title>Shape</title>
    <desc>Created with Sketch.</desc>
    <defs></defs>
    <g id="Accueil" stroke="none" stroke-width="1" fill="none" fill-rule="evenodd" sketch:type="MSPage">
        <g id="Desktop" sketch:type="MSArtboardGroup" transform="translate(-789.000000, -1071.000000)" fill="#ECB7AC">
            <g id="Aside" sketch:type="MSLayerGroup" transform="translate(755.000000, 331.000000)">
                <g id="Social" transform="translate(17.000000, 503.000000)" sketch:type="MSShapeGroup">
                    <g id="HelloCoton" transform="translate(0.000000, 228.000000)">
                        <path d="M43.8923565,21.7135135 C44.0891042,20.9197328 44.1914829,20.1314356 44.1914829,19.3423574 C44.1914829,13.9065545 39.7849284,9.5 34.3491255,9.5 C28.9133226,9.5 24.5067681,13.9065545 24.5067681,19.3423574 C24.5067681,20.8366884 24.8493482,22.2881077 25.4966704,23.6238805 L25.8553604,22.9142314 C21.041565,23.8078562 17.5,28.0177117 17.5,32.9666287 C17.5,38.6174016 22.0808494,43.198251 27.7316223,43.198251 L42.5867442,43.198251 C48.7023352,43.198251 53.6599998,38.2405864 53.6599998,32.1249954 C53.6599998,26.3325271 49.1921281,21.5371296 43.4454229,21.094698 L43.8923565,21.7135135 L43.8923565,21.7135135 Z M42.9217276,21.4729319 L42.7795881,22.0463955 L43.3686613,22.0917475 C48.5957284,22.4941728 52.6599998,26.8563834 52.6599998,32.1249954 C52.6599998,37.6883016 48.1500505,42.198251 42.5867442,42.198251 L27.7316223,42.198251 C22.6331341,42.198251 18.5,38.0651169 18.5,32.9666287 C18.5,28.5020491 21.6955151,24.7035428 26.0378804,23.8974335 L26.6824809,23.777771 L26.3965705,23.1877844 C25.8142318,21.9861074 25.5067681,20.6834669 25.5067681,19.3423574 C25.5067681,14.4588393 29.4656073,10.5 34.3491255,10.5 C39.2326436,10.5 43.1914829,14.4588393 43.1914829,19.3423574 C43.1914829,20.0476205 43.099545,20.7555259 42.9217276,21.4729319 L42.9217276,21.4729319 Z" id="Shape"></path>
                    </g>
                </g>
            </g>
        </g>
    </g>
</svg>