<?xml version="1.0" encoding="UTF-8" standalone="no"?>
<svg width="32px" height="32px" viewBox="0 0 32 32" version="1.1" xmlns="http://www.w3.org/2000/svg" xmlns:xlink="http://www.w3.org/1999/xlink" xmlns:sketch="http://www.bohemiancoding.com/sketch/ns">
    <!-- Generator: Sketch 3.5.1 (25234) - http://www.bohemiancoding.com/sketch -->
    <title>Group 2</title>
    <desc>Created with Sketch.</desc>
    <defs></defs>
    <g id="Accueil" stroke="none" stroke-width="1" fill="none" fill-rule="evenodd" sketch:type="MSPage">
        <g id="Desktop" sketch:type="MSArtboardGroup" transform="translate(-792.000000, -961.000000)" fill="#ECB7AC">
            <g id="Aside" sketch:type="MSLayerGroup" transform="translate(755.000000, 331.000000)">
                <g id="Social" transform="translate(17.000000, 503.000000)" sketch:type="MSShapeGroup">
                    <g id="Instagram" transform="translate(3.000000, 113.000000)">
                        <g id="Group-2" transform="translate(17.000000, 14.000000)">
                            <path d="M25.7200021,30.103723 L5.88372093,30.103723 C3.47381626,30.103723 1.5,28.1299072 1.5,25.7200021 L1.5,5.88372093 C1.5,3.47381686 3.47381686,1.5 5.88372093,1.5 L25.7200021,1.5 C28.1299072,1.5 30.103723,3.47381626 30.103723,5.88372093 L30.103723,25.7200021 C30.103723,28.1299078 28.1299078,30.103723 25.7200021,30.103723 L25.7200021,30.103723 Z M25.7200021,31.103723 C28.6821926,31.103723 31.103723,28.6821926 31.103723,25.7200021 L31.103723,5.88372093 C31.103723,2.92153156 28.682192,0.5 25.7200021,0.5 L5.88372093,0.5 C2.92153211,0.5 0.5,2.92153211 0.5,5.88372093 L0.5,25.7200021 C0.5,28.682192 2.92153156,31.103723 5.88372093,31.103723 L25.7200021,31.103723 L25.7200021,31.103723 Z" id="Shape"></path>
                            <path d="M15.5978919,22.3139676 C18.7317867,22.3139676 21.2723103,19.7734439 21.2723103,16.6395491 C21.2723103,13.5056543 18.7317867,10.9651306 15.5978919,10.9651306 C12.4639971,10.9651306 9.92347337,13.5056543 9.92347337,16.6395491 C9.92347337,19.7734439 12.4639971,22.3139676 15.5978919,22.3139676 L15.5978919,22.3139676 Z M15.5978919,21.3139676 C13.0162818,21.3139676 10.9234734,19.2211591 10.9234734,16.6395491 C10.9234734,14.057939 13.0162818,11.9651306 15.5978919,11.9651306 C18.1795019,11.9651306 20.2723103,14.057939 20.2723103,16.6395491 C20.2723103,19.2211591 18.1795019,21.3139676 15.5978919,21.3139676 L15.5978919,21.3139676 Z" id="Shape"></path>
                            <path d="M15.5978919,25.3953628 C20.4335943,25.3953628 24.3537056,21.4752515 24.3537056,16.6395491 C24.3537056,11.8038467 20.4335943,7.88373535 15.5978919,7.88373535 C10.7621895,7.88373535 6.84207814,11.8038467 6.84207814,16.6395491 C6.84207814,21.4752515 10.7621895,25.3953628 15.5978919,25.3953628 L15.5978919,25.3953628 Z M15.5978919,24.3953628 C11.3144742,24.3953628 7.84207814,20.9229667 7.84207814,16.6395491 C7.84207814,12.3561314 11.3144742,8.88373535 15.5978919,8.88373535 C19.8813095,8.88373535 23.3537056,12.3561314 23.3537056,16.6395491 C23.3537056,20.9229667 19.8813095,24.3953628 15.5978919,24.3953628 L15.5978919,24.3953628 Z" id="Shape"></path>
                            <path d="M26.0581404,7.88384377 L24.1388331,7.88384377 C23.6443461,7.88384377 23.2434843,7.48298212 23.2434843,6.98849493 L23.2434843,5.06918835 C23.2434843,4.57470116 23.6443461,4.17383951 24.1388331,4.17383951 L26.0581404,4.17383951 C26.5526275,4.17383951 26.9534892,4.57470116 26.9534892,5.06918835 L26.9534892,6.98849493 C26.9534892,7.48298216 26.5526275,7.88384377 26.0581404,7.88384377 L26.0581404,7.88384377 Z M26.0581404,8.88384377 C27.1049122,8.88384377 27.9534892,8.03526699 27.9534892,6.98849493 L27.9534892,5.06918835 C27.9534892,4.02241634 27.1049121,3.17383951 26.0581404,3.17383951 L24.1388331,3.17383951 C23.0920614,3.17383951 22.2434843,4.02241634 22.2434843,5.06918835 L22.2434843,6.98849493 C22.2434843,8.03526694 23.0920614,8.88384377 24.1388331,8.88384377 L26.0581404,8.88384377 L26.0581404,8.88384377 Z" id="Shape"></path>
                            <path d="M24.7209302,12.6627907 L27.5116279,12.6627907 L27.0116279,12.1627907 L27.0116279,24.7209302 C27.0116279,25.9860489 25.9860489,27.0116279 24.7209302,27.0116279 L6.58139535,27.0116279 C5.31627753,27.0116279 4.29069767,25.9860484 4.29069767,24.7209302 L4.29069767,12.1627907 L3.79069767,12.6627907 L6.58139535,12.6627907 L6.58139535,11.6627907 L3.79069767,11.6627907 L3.29069767,11.6627907 L3.29069767,12.1627907 L3.29069767,24.7209302 C3.29069767,26.5383332 4.76399286,28.0116279 6.58139535,28.0116279 L24.7209302,28.0116279 C26.5383336,28.0116279 28.0116279,26.5383336 28.0116279,24.7209302 L28.0116279,12.1627907 L28.0116279,11.6627907 L27.5116279,11.6627907 L24.7209302,11.6627907 L24.7209302,12.6627907 L24.7209302,12.6627907 Z" id="Shape"></path>
                        </g>
                    </g>
                </g>
            </g>
        </g>
    </g>
</svg>