<?xml version="1.0" encoding="UTF-8" standalone="no"?>
<svg width="25px" height="32px" viewBox="0 0 25 32" version="1.1" xmlns="http://www.w3.org/2000/svg" xmlns:xlink="http://www.w3.org/1999/xlink" xmlns:sketch="http://www.bohemiancoding.com/sketch/ns">
    <!-- Generator: Sketch 3.5.1 (25234) - http://www.bohemiancoding.com/sketch -->
    <title>Shape</title>
    <desc>Created with Sketch.</desc>
    <defs></defs>
    <g id="Accueil" stroke="none" stroke-width="1" fill="none" fill-rule="evenodd" sketch:type="MSPage">
        <g id="Desktop" sketch:type="MSArtboardGroup" transform="translate(-916.000000, -960.000000)" fill="#ECB7AC">
            <g id="Aside" sketch:type="MSLayerGroup" transform="translate(755.000000, 331.000000)">
                <g id="Social" transform="translate(17.000000, 503.000000)" sketch:type="MSShapeGroup">
                    <g id="Pinterest" transform="translate(126.000000, 114.000000)">
                        <path d="M30.9065196,13.4648437 C32.2642127,13.4648861 33.6641642,13.7073737 35.0980665,14.1941291 C38.5969916,15.3807119 40.4427965,17.8857388 41.0411953,21.435357 C41.6395518,25.0052778 41.0107626,28.3013458 38.9114075,31.2526076 C37.8668162,32.7333459 36.6903636,33.5852526 35.0575036,34.0314874 C34.278161,34.2437541 33.5721876,34.3510742 32.9269528,34.3510742 C31.5066138,34.3510742 30.3810238,33.8307495 29.4186605,32.7637363 C29.2969717,32.6217872 29.0941569,32.4493628 28.8304342,32.4493628 C28.5870565,32.4493628 28.2929433,32.5609215 28.1712544,33.1694081 L27.9988301,33.8388027 C27.8162757,34.5182851 27.6438514,35.1977674 27.5018599,35.8874223 C27.0657976,38.1084662 26.1124624,40.2991197 24.540468,42.4796006 C24.3376533,40.6946614 24.2260945,38.6155666 24.7128923,36.5263417 C25.0678287,35.0050828 25.4126773,33.4838239 25.7574835,31.9523925 L26.680386,27.9464094 C26.8223775,27.3277503 26.8020748,26.8206498 26.6296929,26.3135494 C26.3660126,25.5732014 26.264584,24.8328535 26.3152771,24.0823753 C26.4268358,22.4698181 26.8933733,21.4353569 27.836536,20.7355719 C28.2320777,20.4313285 28.6681824,20.2792069 29.0839844,20.2792069 C29.9663238,20.2792069 30.6559787,20.938429 30.8486633,21.9627176 C30.9703522,22.6321122 30.8182306,23.3115946 30.635676,24.0113796 C30.4734242,24.6300387 30.3009999,25.2486978 30.1184455,25.8673146 C29.8851979,26.6786583 29.6519504,27.490002 29.4490933,28.3216484 C29.1854129,29.4169751 29.3679674,30.4514362 29.9561937,31.2323472 C30.54442,32.0132582 31.4673224,32.4392326 32.5626492,32.4392326 L32.7147708,32.4392326 C34.3171556,32.378367 35.4124824,31.5061577 36.4469435,29.7820841 C37.8059506,27.5103047 38.353614,24.8734165 38.1304965,21.7294701 C38.0087653,20.045917 37.2988501,18.565221 36.0919647,17.4395039 C34.6923947,16.1311899 33.140703,15.5125731 30.7066718,15.5125731 C26.3457099,15.553136 22.9279107,18.5145279 22.1977352,22.9059226 C21.8427565,25.0762735 22.1977352,26.7800868 23.3031921,28.1187912 C23.4451412,28.2810854 23.475574,28.4535097 23.4248809,28.6968874 C23.343755,29.0315635 23.2524566,29.3764122 23.1713307,29.7212184 C23.0800323,30.0558945 23.0090789,30.1268903 23.0090789,30.1268903 C22.9684735,30.1268903 22.8569149,30.1065876 22.5932345,29.9747686 C21.6095089,29.4473656 20.8894212,28.6056314 20.3721906,27.3886158 C20.0983801,26.7598265 19.9766489,26.0803017 19.8346574,25.3703866 L19.7535315,24.9241518 L19.7434014,23.159473 L19.7738342,22.9972212 L19.8448299,22.6523726 C20.2403292,20.1473456 21.3153957,18.1088562 23.0394694,16.6078576 C25.4311574,14.5177002 28.0774129,13.4648014 30.9065196,13.4648437 L30.9065196,13.4648437 Z M30.9065196,12.0759549 C27.7268422,12.0759125 24.7724864,13.2488047 22.1255103,15.5620372 C20.1587372,17.27437 18.9310405,19.5764974 18.4781511,22.4031033 L18.4134708,22.7171801 L18.3783333,22.9034221 C18.3619724,22.9904819 18.3540464,23.0788981 18.354555,23.1674415 L18.3646851,24.9321205 C18.3651514,25.0127801 18.3726112,25.0932278 18.3870223,25.1725735 L18.4681482,25.6188083 L18.5064223,25.8120015 C18.6445143,26.5080566 18.7873112,27.2277628 19.0988024,27.9431458 C19.7394172,29.4505869 20.6693556,30.5192108 21.9369795,31.1988203 C21.9486356,31.2050934 21.9603763,31.2111545 21.9721595,31.2170885 C22.3910133,31.4264306 22.7011058,31.5157793 23.009079,31.5157793 C23.3775787,31.5157793 23.7309893,31.3693373 23.9914908,31.1086663 C24.2207541,30.8792758 24.3810137,30.5640971 24.5112644,30.0867513 C24.5155454,30.0709839 24.519572,30.0551741 24.5233019,30.0393219 C24.5679763,29.8493924 24.6159143,29.6594628 24.6633437,29.4713559 C24.7012788,29.3208873 24.7389595,29.1715207 24.7746906,29.0240615 C24.7782085,29.0094808 24.7815147,28.9948154 24.7845664,28.9801076 C24.9587285,28.1440531 24.6576641,27.5666351 24.3659246,27.2244568 C23.5313112,26.2073737 23.2779729,24.9059262 23.5683985,23.1300999 C24.1819714,19.4400584 27.0560491,16.9354553 30.7195996,16.9013774 C32.7042594,16.9014622 33.9482322,17.3368039 35.143504,18.4541287 C36.0962883,19.342826 36.6498008,20.5096995 36.7452106,21.8296272 C36.9478982,24.6853519 36.4605071,27.0539822 35.2550203,29.0690749 C34.3042283,30.6537425 33.5386609,31.0119426 32.6862032,31.0503438 L32.5626494,31.0503438 C32.1042923,31.0503438 31.4724937,30.9369201 31.0655926,30.3967167 C30.7296026,29.9507362 30.6350828,29.3292372 30.7994115,28.6467031 C30.9945545,27.8467611 31.2276749,27.0357989 31.4531235,26.2515819 C31.6363561,25.6307611 31.8142058,24.992647 31.9791278,24.3637306 C32.1933443,23.542511 32.3876395,22.6630961 32.2151728,21.7142962 C31.8968151,20.0218422 30.6391094,18.8903182 29.0839846,18.8903182 C28.3470274,18.8903182 27.6228284,19.1477255 26.9897582,19.6346928 C25.7308657,20.5684459 25.0702025,21.9558937 24.9296945,23.9865418 C24.8658619,24.9318662 24.9976385,25.8707903 25.3212944,26.779536 C25.3807189,26.9547153 25.4278092,27.1950837 25.3266774,27.6357236 L24.4040717,31.6406047 C24.0585025,33.1752151 23.7144592,34.6929983 23.3603281,36.2107816 C22.8062222,38.5888215 22.9624552,40.8938735 23.1604803,42.6364272 C23.2252454,43.2065549 23.633969,43.6781787 24.1891347,43.8233067 C24.3056949,43.8537819 24.4237385,43.8685744 24.5404683,43.8685744 C24.9798366,43.8685744 25.4019965,43.6595713 25.6671179,43.2918345 C27.3052337,41.0195889 28.3810631,38.6184065 28.8647243,36.1550022 C28.9835309,35.5782623 29.1288709,34.9982164 29.2570871,34.5112915 C30.3090534,35.3363681 31.5190754,35.7399631 32.926953,35.7399631 C33.6959535,35.7399631 34.5122564,35.619461 35.4224856,35.3715481 C37.3523409,34.844145 38.8212112,33.7898474 40.0463225,32.0532277 C42.2914837,28.8969896 43.0881621,25.2459004 42.4109685,21.2057546 C41.6992308,16.9838596 39.3889653,14.1827274 35.544132,12.8788215 C33.9749349,12.3461626 32.4144694,12.0759549 30.9065196,12.0759549 L30.9065196,12.0759549 L30.9065196,12.0759549 Z" id="Shape"></path>
                    </g>
                </g>
            </g>
        </g>
    </g>
</svg>