<?xml version="1.0" encoding="UTF-8" standalone="no"?>
<svg width="17px" height="17px" viewBox="0 0 17 17" version="1.1" xmlns="http://www.w3.org/2000/svg" xmlns:xlink="http://www.w3.org/1999/xlink" xmlns:sketch="http://www.bohemiancoding.com/sketch/ns">
    <!-- Generator: Sketch 3.5.1 (25234) - http://www.bohemiancoding.com/sketch -->
    <title>Search</title>
    <desc>Created with Sketch.</desc>
    <defs></defs>
    <g id="Accueil" stroke="none" stroke-width="1" fill="none" fill-rule="evenodd" sketch:type="MSPage">
        <g id="Desktop" sketch:type="MSArtboardGroup" transform="translate(-823.000000, -255.000000)" fill="#333333">
            <g id="Menu" sketch:type="MSLayerGroup" transform="translate(-1.000000, 218.000000)">
                <g id="Recherche" transform="translate(695.000000, 37.000000)" sketch:type="MSShapeGroup">
                    <g id="Search" transform="translate(129.000000, 0.000000)">
                        <path d="M6.25,12 C9.42563731,12 12,9.42563731 12,6.25 C12,3.07436269 9.42563731,0.5 6.25,0.5 C3.07436269,0.5 0.5,3.07436269 0.5,6.25 C0.5,9.42563731 3.07436269,12 6.25,12 L6.25,12 Z M6.25,11 C3.62664744,11 1.5,8.87335256 1.5,6.25 C1.5,3.62664744 3.62664744,1.5 6.25,1.5 C8.87335256,1.5 11,3.62664744 11,6.25 C11,8.87335256 8.87335256,11 6.25,11 L6.25,11 Z" id="Shape"></path>
                        <path d="M10.2839466,9.90355339 L15.3839466,15.0035534 C15.3386845,14.9582912 15.3386845,14.8667088 15.3839466,14.8214466 L14.8589466,15.3464466 C14.9042088,15.3011845 14.9957912,15.3011845 15.0410534,15.3464466 L9.90094425,10.2813566 L9.19905575,10.9936434 L14.3365558,16.0561434 C14.6792088,16.3988155 15.2207912,16.3988155 15.5660534,16.0535534 L16.0910534,15.5285534 C16.4363155,15.1832912 16.4363155,14.6417088 16.0910534,14.2964466 L10.9910534,9.19644661 L10.2839466,9.90355339 L10.2839466,9.90355339 Z" id="Shape"></path>
                    </g>
                </g>
            </g>
        </g>
    </g>
</svg>