<?xml version="1.0" encoding="UTF-8" standalone="no"?>
<svg width="38px" height="26px" viewBox="0 0 38 26" version="1.1" xmlns="http://www.w3.org/2000/svg" xmlns:xlink="http://www.w3.org/1999/xlink" xmlns:sketch="http://www.bohemiancoding.com/sketch/ns">
    <!-- Generator: Sketch 3.5.1 (25234) - http://www.bohemiancoding.com/sketch -->
    <title>Shape</title>
    <desc>Created with Sketch.</desc>
    <defs></defs>
    <g id="Accueil" stroke="none" stroke-width="1" fill="none" fill-rule="evenodd" sketch:type="MSPage">
        <g id="Desktop" sketch:type="MSArtboardGroup" transform="translate(-791.000000, -850.000000)" fill="#FFFFFF">
            <g id="Aside" sketch:type="MSLayerGroup" transform="translate(755.000000, 331.000000)">
                <g id="Social" transform="translate(17.000000, 503.000000)" sketch:type="MSShapeGroup">
                    <g id="Twitter" transform="translate(9.000000, 0.000000)">
                        <path d="M41.9370284,27.9029303 C43.9864603,27.7338681 45.5216616,26.7904228 46.1296053,25.3543857 L46.738492,23.916121 L45.4075352,24.7333741 C44.6702685,25.1860811 42.6662829,25.4815675 41.7596459,25.1442619 L41.5853007,25.6128809 L42.0747805,25.5108538 C42.0181225,25.2390342 41.9524367,24.9655892 41.8790466,24.6903731 C40.8700546,20.9856161 37.4528131,18.2270571 34.0015814,18.5707664 L34.0511314,19.0683051 L34.2383278,19.5319403 C34.5004014,19.4261259 34.7601182,19.3301618 35.0142673,19.2455673 C35.0437019,19.2351542 35.7719826,19.0533688 36.0731179,18.9593161 C37.2008313,18.6071008 37.8281745,18.1572741 37.4646113,17.342297 C37.1719974,16.6583191 36.4279809,16.7197803 35.1481199,17.1221664 C34.9741033,17.1768769 34.7924148,17.2383817 34.599435,17.3072759 C34.3282075,17.4041048 33.5620133,17.6971755 33.4944454,17.7181007 L33.8183809,18.6637133 C35.1548466,18.161044 35.8289795,17.7372777 35.962172,16.8706096 L36.063965,16.2082555 L35.4000473,16.2992951 C34.3194219,16.4474757 33.2546247,16.9540182 32.4247238,17.7063413 L32.7605387,18.0767847 L33.1269192,18.4170278 C33.4872987,18.0289641 33.7225297,17.5797508 33.7765715,17.104846 L33.8952689,16.0617641 L33.0105881,16.6269621 C30.6320274,18.1465583 29.0889202,20.7549511 27.3907165,25.2430973 L28.2062896,25.0609528 C27.0731828,23.9630609 26.2346327,23.2769832 25.4699787,22.8694967 C22.9566455,21.5215137 20.265875,20.3201712 16.520969,18.9298192 L15.9094103,18.7027689 L15.8490856,19.3523202 C15.6833888,21.1364742 16.8371279,23.0260646 19.0792135,24.1973371 L19.3771372,23.2585953 C18.8532175,23.1883869 17.9756201,23.3051261 17.0619292,23.5238694 L16.5978244,23.634979 L16.6871873,24.1037571 C17.0607409,26.0633379 18.3670739,27.3382318 20.9428111,27.9470294 L21.0249032,26.9615213 C19.7448212,27.0459807 18.9931703,27.3498701 18.3220682,28.0527987 L18.078316,28.3081106 L18.2372989,28.6232672 C19.0431966,30.2208228 20.7280672,31.2330441 23.0027327,30.9847797 L22.7505532,30.028576 C21.2931918,30.656807 20.7092773,31.7344767 21.2370671,32.743509 C21.6945714,33.6181689 22.8733071,34.1132057 24.1002111,33.9335375 L23.6685427,33.0910204 C20.3177099,36.5519506 14.8253051,36.5707499 11.5243642,33.4208033 L10.7760805,34.0783541 C19.3278765,45.7314568 39.0767578,42.0285209 42.1731195,29.4832276 L41.6834131,29.8633974 C43.694043,29.8805828 45.1514333,29.2537961 46.1866436,28.1426855 L47.1938916,27.0615873 L45.7371288,27.3089012 C44.6530837,27.492939 42.9767551,27.3129393 42.0880685,26.9430173 L41.9370284,27.9029303 L41.9370284,27.9029303 Z M41.8548155,26.9063155 L39.8041165,27.0754822 L41.7037754,27.8662285 C42.7687646,28.3095377 44.6364019,28.5100796 45.9045035,28.2947946 L45.4549887,27.4610103 C44.6109467,28.3669364 43.4221168,28.8782221 41.6919601,28.863434 L41.2969185,28.8600574 L41.2022537,29.2436038 C38.3106516,40.9592881 19.6358032,44.4608417 11.5822813,33.4867121 L10.8339976,34.144263 C14.5272622,37.6685874 20.6487823,37.6476348 24.3869845,33.7866075 L25.4087737,32.7312457 L23.9553162,32.9440904 C23.1230238,33.0659716 22.3685323,32.7491057 22.1231695,32.2800195 C21.9032438,31.8595639 22.1696087,31.3679621 23.1464133,30.9468869 L26.2021222,29.6296495 L22.8942338,29.9906832 C21.0523723,30.1917099 19.7555153,29.4125958 19.1301288,28.1728732 L19.0453596,28.7433417 C19.5288704,28.2369007 20.0446521,28.0283722 21.0907397,27.9593517 L24.414538,27.7400487 L21.1728318,26.9738437 C18.9686537,26.4528673 17.9665763,25.4749065 17.6694982,23.9164998 L17.2947562,24.4963876 C18.0947533,24.3048633 18.8781048,24.2006608 19.2443184,24.2497356 L22.0619966,24.6273214 L19.5422421,23.3109938 C17.6439041,22.319296 16.7185867,20.8038141 16.8448007,19.4447936 L16.1729173,19.8672946 C19.8762279,21.2422036 22.5254367,22.4249902 24.9985103,23.7513786 C25.6604082,24.1041081 26.4398683,24.7418401 27.5104307,25.7791313 L28.0567831,26.3085042 L28.3260037,25.5969869 C29.9515489,21.3008683 31.4094128,18.8365666 33.5489673,17.4696647 L33.2797777,17.0483134 L32.7829839,16.9917808 C32.7554026,17.2341584 32.6192574,17.4941504 32.3941582,17.7365416 L33.0963537,18.4472281 C33.7788585,17.8285227 34.6576865,17.4104491 35.5359009,17.290024 L34.9737762,16.7187095 C34.922227,17.054134 34.4231647,17.3678493 33.4663399,17.7277287 L33.7902754,18.6733413 C33.8946961,18.6410031 34.6915318,18.336212 34.9356541,18.2490597 C35.1173134,18.1842069 35.2871489,18.1267146 35.4480442,18.0761294 C35.8562825,17.94778 36.1913541,17.8692415 36.4317498,17.8493831 C36.5751262,17.8375391 36.5908053,17.8420241 36.5483035,17.7426989 C36.5287199,17.6989428 36.5505771,17.6513448 36.4874923,17.6965788 C36.3467519,17.7974944 36.1008007,17.9030307 35.7749934,18.0047891 C35.519808,18.0844904 34.7636381,18.2732372 34.6876194,18.3004907 C34.4240918,18.3880685 34.1448904,18.4912321 33.863935,18.60467 L30.6264065,19.9118481 L34.1006815,19.5658439 C37.0310362,19.2740089 40.0259099,21.6916126 40.9135009,24.9505933 C40.9816749,25.2062763 41.0431112,25.4620306 41.0958209,25.7149079 L41.1521645,25.9852191 L41.4109555,26.0814998 C42.6244336,26.5329628 44.9451339,26.1907769 45.9307977,25.5855456 L45.2087277,24.9645339 C44.7583716,26.0283299 43.5583615,26.7657862 41.8548155,26.9063155 L41.8548155,26.9063155 Z" id="Shape"></path>
                    </g>
                </g>
            </g>
        </g>
    </g>
</svg>