<?xml version="1.0" encoding="utf-8"?>
<!-- Generator: Adobe Illustrator 18.1.1, SVG Export Plug-In . SVG Version: 6.00 Build 0)  -->
<svg version="1.1" xmlns="http://www.w3.org/2000/svg" xmlns:xlink="http://www.w3.org/1999/xlink" x="0px" y="0px"
	 viewBox="0 0 128 41.2" enable-background="new 0 0 128 41.2" xml:space="preserve">
<g id="background">
</g>
<g id="objects">
	<g>
		<g>
			<g>
				<g>
					<g>
						<g opacity="0.66">
							<defs>
								<polygon id="SVGID_1_" opacity="0.66" points="128,26.6 127.2,26 126.3,25.4 127,24.6 127.7,23.8 127.7,23.7 126.9,23.1 
									126,22.5 126.7,21.7 127.5,20.9 127.5,20.9 126.6,20.3 125.7,19.7 126.5,18.9 127.2,18.1 127.2,18 126.3,17.4 125.5,16.8 
									126.2,16 126.9,15.2 126.9,15.2 126,14.6 125.2,14 125.9,13.2 126.6,12.4 126.6,12.3 125.8,11.7 124.9,11.1 125.6,10.3 
									126.4,9.6 126.4,9.5 125.5,8.9 124.6,8.3 125.4,7.5 126.1,6.7 126.1,6.6 125.2,6 124.4,5.4 125.1,4.6 125.8,3.9 125.8,3.8 
									124.9,3.2 124.1,2.6 124.8,1.8 125.5,1 125.5,1 124.7,0.3 124.2,0 124.2,0 123.3,0.1 1,13.2 1,13.2 0.7,13.5 0,14.3 0,14.3 
									0.9,15 1.7,15.6 1,16.3 0.3,17.1 0.3,17.2 1.1,17.8 2,18.4 1.3,19.2 0.6,20 0.6,20 1.4,20.6 2.3,21.3 1.6,22 0.8,22.8 
									0.8,22.9 1.7,23.5 2.6,24.1 1.8,24.9 1.1,25.7 1.1,25.7 2,26.3 2.8,26.9 2.1,27.7 1.4,28.5 1.4,28.6 2.2,29.2 3.1,29.8 
									2.4,30.6 1.7,31.4 1.7,31.4 2.5,32 3.4,32.6 2.7,33.4 1.9,34.2 1.9,34.3 2.8,34.9 3.7,35.5 2.9,36.3 2.2,37.1 2.2,37.1 
									3.1,37.7 3.9,38.3 3.2,39.1 2.5,39.9 2.5,40 3.3,40.6 4.2,41.2 126.8,27.9 126.8,27.9 127.3,27.4 128,26.6 								"/>
							</defs>
							<use xlink:href="#SVGID_1_"  overflow="visible" fill="#F1D4E2"/>
							<clipPath id="SVGID_2_">
								<use xlink:href="#SVGID_1_"  overflow="visible"/>
							</clipPath>
						</g>
						<g>
							<polygon fill="#EF859E" points="123.1,8.3 118.9,12.5 118.9,12.5 106.9,24.5 102.7,28.6 100.6,30.8 102.2,30.6 102.2,30.6 
								102.7,30 107.6,25.2 124.5,8.3 126.1,6.7 126.1,6.7 126.1,6.6 125.3,6.1 							"/>
							<polygon fill="#EF859E" points="126.1,17.3 114,29.3 115.6,29.2 126.9,17.8 126.3,17.4 							"/>
							<polygon fill="#EF859E" points="126.5,22.9 120.7,28.6 122.3,28.4 127.3,23.4 126.9,23.1 							"/>
							<polygon fill="#EF859E" points="102.7,10.6 100.9,12.5 100.9,12.5 80.4,32.9 82,32.8 95.6,19.2 95.6,19.2 102.7,12 
								106.5,8.3 107.6,7.2 113.6,1.2 113.6,1.2 113.6,1.1 112,1.3 105.1,8.3 							"/>
							<polygon fill="#EF859E" points="106.9,12.5 106.9,12.5 106.9,12.5 102.7,16.6 87.1,32.2 88.7,32.1 95.6,25.2 95.6,25.2 
								102.7,18 107.6,13.2 112.5,8.3 119.6,1.2 119.6,1.2 120.4,0.4 118.8,0.6 111.1,8.3 							"/>
							<polygon fill="#EF859E" points="112.9,12.5 112.9,12.5 106.9,18.5 102.7,22.6 93.8,31.5 95.4,31.3 95.6,31.2 95.6,31.2 
								102.7,24 107.6,19.2 118.5,8.3 124.1,2.6 124.1,2.6 124.1,2.6 124.8,1.8 125.5,1 125.5,1 124.9,0.5 117.1,8.3 							"/>
							<polygon fill="#EF859E" points="125.7,11.7 124.9,12.5 124.9,12.5 107.3,30 108.9,29.9 126.5,12.3 126.5,12.3 125.8,11.7 
															"/>
							<polygon fill="#EF859E" points="34.9,18.5 30.7,22.6 13.1,40.2 14.7,40 23.6,31.2 23.6,31.2 30.7,24 35.6,19.2 46.4,8.3 
								46.4,8.3 44.9,8.5 40.9,12.5 40.9,12.5 							"/>
							<polygon fill="#EF859E" points="34.9,24.5 30.7,28.6 19.9,39.5 21.5,39.3 23.6,37.2 23.6,37.2 30.7,30 35.6,25.2 52.5,8.3 
								53.2,7.6 53.2,7.6 51.6,7.8 51.1,8.3 46.9,12.5 46.9,12.5 							"/>
							<polygon fill="#EF859E" points="94.9,12.5 94.9,12.5 73.7,33.7 75.3,33.5 100.5,8.3 102.7,6 106.2,2.5 106.9,1.8 106.9,1.8 
								106.9,1.8 105.3,2 105.3,2 102.7,4.6 99.1,8.3 							"/>
							<polygon fill="#EF859E" points="52.9,12.5 34.9,30.5 30.7,34.6 26.6,38.7 28.2,38.6 28.2,38.6 30.7,36 35.6,31.2 58.5,8.3 
								59.9,6.9 59.9,6.9 58.3,7 57.1,8.3 52.9,12.5 							"/>
							<polyline fill="#EF859E" points="58.9,12.5 34.9,36.5 33.3,38 34.9,37.9 35.6,37.2 64.5,8.3 66.6,6.2 66.6,6.2 65,6.3 
								63.1,8.3 							"/>
							<polygon fill="#EF859E" points="64.9,12.5 40,37.3 41.6,37.1 70.5,8.3 73.3,5.4 73.3,5.4 71.7,5.6 69.1,8.3 64.9,12.5 
															"/>
							<polygon fill="#EF859E" points="70.9,12.5 46.8,36.6 48.4,36.4 76.5,8.3 80,4.7 80,4.7 78.5,4.9 75.1,8.3 70.9,12.5 							
								"/>
							<polygon fill="#EF859E" points="76.9,12.5 53.5,35.8 55.1,35.7 82.5,8.3 86.8,4 86.8,4 85.2,4.2 81.1,8.3 76.9,12.5 							
								"/>
							<polygon fill="#EF859E" points="82.9,12.5 60.2,35.1 61.8,35 88.5,8.3 93.5,3.3 93.5,3.3 91.9,3.5 87.1,8.3 82.9,12.5 
															"/>
							<polygon fill="#EF859E" points="88.9,12.5 88.9,12.5 66.9,34.4 68.5,34.2 94.5,8.3 95.6,7.2 100.2,2.6 100.2,2.6 98.6,2.7 
								93.1,8.3 							"/>
							<polygon fill="#EF859E" points="23.6,19.2 30.7,12 33,9.8 33,9.8 31.4,9.9 30.7,10.6 28.9,12.5 28.9,12.5 3.4,38 3.9,38.3 
								3.2,39.1 2.5,39.9 2.5,40 2.7,40.1 23.6,19.2 							"/>
							<polygon fill="#EF859E" points="6.1,12.6 6.1,12.6 5.2,12.7 4.5,12.8 1,16.3 1,16.3 0.3,17.1 0.3,17.2 1,17.7 							"/>
							<polygon fill="#EF859E" points="12.9,11.9 12.8,11.9 11.3,12.1 10.9,12.5 10.9,12.5 2.2,21.2 2.3,21.3 1.6,22 0.8,22.8 
								0.8,22.9 1.4,23.3 							"/>
							<polygon fill="#EF859E" points="19.6,11.2 18,11.4 16.9,12.5 16.9,12.5 2.6,26.8 2.8,26.9 2.1,27.7 1.4,28.5 1.4,28.6 
								1.9,28.9 19.6,11.2 							"/>
							<polygon fill="#EF859E" points="26.3,10.5 24.7,10.6 24.7,10.6 22.9,12.5 22.9,12.5 3,32.4 3.4,32.6 2.7,33.4 1.9,34.2 
								1.9,34.3 2.3,34.5 26.3,10.5 							"/>
							<polygon fill="#EF859E" points="23.6,25.2 23.6,25.2 30.7,18 35.6,13.2 39.7,9 39.7,9 38.1,9.2 34.9,12.5 34.9,12.5 
								34.9,12.5 30.7,16.6 6.4,40.9 8,40.8 							"/>
						</g>
					</g>
				</g>
			</g>
		</g>
	</g>
</g>
</svg>
