<?xml version="1.0" encoding="UTF-8" standalone="no"?>
<svg width="19px" height="19px" viewBox="0 0 19 19" version="1.1" xmlns="http://www.w3.org/2000/svg" xmlns:xlink="http://www.w3.org/1999/xlink" xmlns:sketch="http://www.bohemiancoding.com/sketch/ns">
    <!-- Generator: Sketch 3.5.1 (25234) - http://www.bohemiancoding.com/sketch -->
    <title>Group</title>
    <desc>Created with Sketch.</desc>
    <defs></defs>
    <g id="Accueil" stroke="none" stroke-width="1" fill="none" fill-rule="evenodd" sketch:type="MSPage">
        <g id="Desktop" sketch:type="MSArtboardGroup" transform="translate(-567.000000, -1692.000000)" fill="#C77083">
            <g id="Small-Article" sketch:type="MSLayerGroup" transform="translate(98.000000, 1436.000000)">
                <g id="Message" transform="translate(180.000000, 255.000000)" sketch:type="MSShapeGroup">
                    <g id="Message-Copy" transform="translate(289.000000, 0.000000)">
                        <g id="speech-balloon" transform="translate(0.000000, 1.000000)">
                            <g id="Capa_1">
                                <g id="Group">
                                    <path d="M16.6673955,0 L2.35699254,0 C1.07543781,0 0.032800995,1.03491358 0.032800995,2.30702222 L0.032800995,11.6248568 C0.032800995,12.8969185 1.07543781,13.931879 2.3570398,13.931879 L10.1940199,13.931879 L10.1940199,18.4143309 C10.1940199,18.6493679 10.3411517,18.8596346 10.5630075,18.9418272 C10.6276642,18.9657531 10.6946841,18.9772938 10.7610423,18.9772938 C10.9224478,18.9772938 11.0799776,18.9088469 11.1898657,18.7829309 L15.42351,13.931879 L16.6673483,13.931879 C17.948903,13.931879 18.9915398,12.8969654 18.9915398,11.6248568 L18.9915398,2.30702222 C18.9915871,1.03491358 17.9489502,0 16.6673955,0 L16.6673955,0 Z M17.8572587,11.6248568 C17.8572587,12.2760642 17.32351,12.8059531 16.6673955,12.8059531 C16.6673955,12.8059531 15.2,12.8063284 15.1913507,12.8059531 C15.0237065,12.7981654 14.8542189,12.8645951 14.7357761,13.000316 L11.3283955,16.9046988 L11.3283955,13.368963 C11.3283955,13.0580667 11.0744478,12.806 10.7612313,12.806 L2.35699254,12.806 C1.70087811,12.806 1.16708209,12.2761111 1.16708209,11.6249037 L1.16708209,2.30702222 C1.16712935,1.65581481 1.70087811,1.12592593 2.35699254,1.12592593 L16.6673483,1.12592593 C17.3234627,1.12592593 17.8572114,1.65581481 17.8572114,2.30702222 L17.8572114,11.6248568 L17.8572587,11.6248568 Z" id="Shape"></path>
                                    <path d="M15.8629677,3.7133037 L3.16146766,3.7133037 C2.84825124,3.7133037 2.59430348,3.96537037 2.59430348,4.27626667 C2.59430348,4.58716296 2.84825124,4.83922963 3.16146766,4.83922963 L15.8629677,4.83922963 C16.1761841,4.83922963 16.4301318,4.58716296 16.4301318,4.27626667 C16.4301318,3.96537037 16.1762313,3.7133037 15.8629677,3.7133037 L15.8629677,3.7133037 Z" id="Shape"></path>
                                    <path d="M15.8629677,6.40295309 L3.16146766,6.40295309 C2.84825124,6.40295309 2.59430348,6.65501975 2.59430348,6.96591605 C2.59430348,7.27681235 2.84825124,7.52887901 3.16146766,7.52887901 L15.8629677,7.52887901 C16.1761841,7.52887901 16.4301318,7.27681235 16.4301318,6.96591605 C16.4301318,6.65501975 16.1762313,6.40295309 15.8629677,6.40295309 L15.8629677,6.40295309 Z" id="Shape"></path>
                                    <path d="M9.17350249,9.09250864 L3.16146766,9.09250864 C2.84825124,9.09250864 2.59430348,9.34457531 2.59430348,9.6554716 C2.59430348,9.9663679 2.84825124,10.2184346 3.16146766,10.2184346 L9.17354975,10.2184346 C9.48676617,10.2184346 9.74071393,9.9663679 9.74071393,9.6554716 C9.74066667,9.34462222 9.48676617,9.09250864 9.17350249,9.09250864 L9.17350249,9.09250864 Z" id="Shape"></path>
                                </g>
                            </g>
                        </g>
                    </g>
                </g>
            </g>
        </g>
    </g>
</svg>