<?xml version="1.0" encoding="UTF-8" standalone="no"?>
<svg width="652px" height="162px" viewBox="0 0 652 162" version="1.1" xmlns="http://www.w3.org/2000/svg" xmlns:xlink="http://www.w3.org/1999/xlink" xmlns:sketch="http://www.bohemiancoding.com/sketch/ns">
    <!-- Generator: Sketch 3.5.1 (25234) - http://www.bohemiancoding.com/sketch -->
    <title>Group</title>
    <desc>Created with Sketch.</desc>
    <defs>
        <rect id="path-1" x="-3.97903932e-13" y="0" width="671.280765" height="599"></rect>
        <path id="path-3" d="M67.4637168,11.381 C69.2258289,9.13475 70.5683904,4.34275 69.5614692,3.668875 L64.7785938,0.599 C63.7716726,-0.074875 58.9887972,2.6955 57.2266852,4.792 L55.2128429,3.519125 L1.51038172,70.008125 C0.0839100956,71.73025 0.251730287,73.9765 1.8460221,75.02475 L10.2370317,80.41575 C11.8313235,81.464 14.2647162,80.865 15.6911879,79.068 L69.393649,12.579 L67.4637168,11.381 L67.4637168,11.381 Z"></path>
    </defs>
    <g id="Accueil" stroke="none" stroke-width="1" fill="none" fill-rule="evenodd" sketch:type="MSPage">
        <g id="Desktop" sketch:type="MSArtboardGroup" transform="translate(-72.000000, -1144.000000)">
            <g id="Découvrez-plus" sketch:type="MSLayerGroup" transform="translate(51.000000, 1040.000000)">
                <g id="Décoration">
                    <g id="Group">
                        <g id="Objects_1_">
                            <g id="Group" transform="translate(0.000000, 104.000000)">
                                <g id="Clipped" transform="translate(0.843489, 0.000000)">
                                    <mask id="mask-2" sketch:name="SVGID_9_" fill="white">
                                        <use xlink:href="#path-1"></use>
                                    </mask>
                                    <g id="SVGID_9_"></g>
                                    <g id="Group" mask="url(#mask-2)">
                                        <g transform="translate(462.344627, -61.397500)">
                                            <g>
                                                <g transform="translate(53.702461, 105.573750)" id="Shape" sketch:type="MSShapeGroup">
                                                    <path d="M96.2448796,78.61875 C136.857366,58.103 162.449945,29.95 153.387655,15.72375 L148.94042,8.6855 C158.00271,22.91175 132.410131,51.06475 91.7976446,71.5805 C51.1851583,92.09625 10.9922225,97.18775 1.9299322,82.9615 L6.37716726,89.99975 C15.4394576,104.226 55.7163035,99.1345 96.2448796,78.61875 L96.2448796,78.61875 Z" fill="#E1A99E"></path>
                                                    <path d="M91.7976446,71.655375 C132.410131,51.139625 158.00271,22.986625 148.94042,8.760375 C139.878129,-5.465875 99.6851935,-0.374375 59.0727073,20.141375 C18.460221,40.657125 -7.13235812,68.810125 1.9299322,83.036375 C10.9922225,97.18775 51.2690684,92.09625 91.7976446,71.655375 L91.7976446,71.655375 Z M61.0865496,23.136375 C96.8322503,5.0915 132.326221,0.599 140.29768,13.103125 C148.269139,25.682125 125.697323,50.46575 89.9516225,68.510625 C54.2059217,86.5555 18.7119513,91.048 10.7404922,78.543875 C2.76903315,66.03975 25.2569388,41.18125 61.0865496,23.136375 L61.0865496,23.136375 Z" fill="#C77083"></path>
                                                    <path d="M10.6565821,78.543875 C18.6280412,91.122875 54.0381016,86.630375 89.8677124,68.510625 C125.613413,50.46575 148.185229,25.60725 140.21377,13.103125 C132.242311,0.524125 96.8322503,5.016625 61.0026395,23.136375 C25.2569388,41.18125 2.76903315,66.03975 10.6565821,78.543875 L10.6565821,78.543875 Z M133.752692,11.83025 C133.920513,12.12975 134.172243,12.504125 134.256153,12.8785 C134.507883,13.178 134.843524,13.552375 135.011344,13.92675 C142.059792,25.00825 120.662717,47.6205 87.2664994,64.467375 C53.8702814,81.31425 21.1453441,86.031375 14.0968961,74.949875 C13.8451658,74.5755 13.6773456,74.201125 13.5095254,73.82675 C13.2577951,73.52725 13.0060648,73.22775 12.8382446,72.92825 C6.54498746,62.969875 28.5294325,41.256125 61.8417404,24.40925 C95.2379585,7.562375 127.459435,1.94675 133.752692,11.83025 L133.752692,11.83025 Z" fill="#E1A99E"></path>
                                                </g>
                                                <g transform="translate(65.449875, 112.312500)" id="Shape" sketch:type="MSShapeGroup">
                                                    <path d="M72.9178731,53.6105 C40.6124863,69.93325 9.4818408,75.698625 1.76211201,67.088 C1.9299322,67.462375 2.09775239,67.83675 2.34948268,68.211125 C9.3979307,79.292625 42.122868,74.5755 75.519086,57.728625 C108.915304,40.88175 130.228468,18.2695 123.26393,7.188 C123.0122,6.813625 122.76047,6.514125 122.50874,6.13975 C126.788154,16.4725 105.22326,37.28775 72.9178731,53.6105 L72.9178731,53.6105 Z" fill="#FBB662"></path>
                                                    <path d="M1.09083124,66.1895 C1.25865143,66.489 1.51038172,66.7885 1.76211201,67.088 C9.4818408,75.698625 40.6124863,69.93325 72.9178731,53.6105 C105.22326,37.28775 126.788154,16.4725 122.50874,6.13975 C122.340919,5.765375 122.173099,5.465875 122.005279,5.0915 C115.712022,-4.866875 83.5744552,0.74875 50.1782372,17.6705 C16.7820191,34.517375 -5.20242593,56.231125 1.09083124,66.1895 L1.09083124,66.1895 Z" fill="#FFD485"></path>
                                                </g>
                                                <g id="Shape" sketch:type="MSShapeGroup">
                                                    <path d="M141.220691,34.367625 C120.830538,2.171375 75.0156254,-9.13475 38.9342843,9.059875 C2.85294325,27.329375 -9.90139128,68.13625 10.572672,100.3325 C31.0467354,132.52875 76.7777375,143.834875 112.859079,125.64025 C148.94042,107.445625 161.610844,66.563875 141.220691,34.367625 L141.220691,34.367625 Z M108.495754,118.75175 C76.6938274,134.849875 36.3330714,124.816625 18.2924008,96.439 C0.251730287,68.061375 11.4956831,32.0465 43.2976093,15.948375 C75.0995355,-0.14975 115.460292,9.8835 133.500962,38.261125 C151.457723,66.63875 140.29768,102.7285 108.495754,118.75175 L108.495754,118.75175 Z" fill="#E1A99E"></path>
                                                    <path d="M43.2976093,15.948375 C11.4956831,32.0465 0.335640382,68.061375 18.2924008,96.439 C36.3330714,124.816625 76.6938274,134.775 108.495754,118.75175 C140.29768,102.7285 151.457723,66.63875 133.417052,38.261125 C115.460292,9.8835 75.0995355,-0.074875 43.2976093,15.948375 L43.2976093,15.948375 Z M106.314091,115.3075 C90.2033527,123.468875 71.7431317,124.367375 55.5484833,119.35075 L55.5484833,119.35075 L55.5484833,119.35075 C54.1220116,118.9015 52.69554,118.377375 51.3529785,117.85325 C51.1012482,117.778375 50.8495179,117.628625 50.5138775,117.55375 C49.2552261,117.029625 48.0804848,116.5055 46.9057434,115.981375 C46.4022829,115.75675 45.8988223,115.45725 45.3953617,115.232625 C44.3884406,114.7085 43.3815194,114.25925 42.4585084,113.66025 C41.6194074,113.211 40.8642165,112.686875 40.1090257,112.237625 C34.3192291,108.56875 29.2007133,104.001375 25.0052085,98.5355 C23.9982873,97.262625 23.0752763,95.914875 22.1522652,94.49225 C21.3131643,93.219375 20.6418835,91.871625 19.9706027,90.59875 C10.6565821,72.7785 12.9221547,52.4125 24.585658,36.8385 C24.6695681,36.68875 24.8373883,36.539 24.9212984,36.38925 C26.0121296,34.966625 27.186871,33.618875 28.3616123,32.271125 C28.7811628,31.821875 29.2007133,31.372625 29.6202637,30.923375 C34.0674988,26.430875 39.2699247,22.537375 45.4792718,19.392625 L45.4792718,19.392625 L45.4792718,19.392625 C47.0735636,18.569 48.7517655,17.82025 50.4299674,17.146375 C51.0173381,16.92175 51.6047088,16.697125 52.1920795,16.4725 C53.2829107,16.098125 54.3737419,15.72375 55.4645732,15.349375 C56.1358539,15.12475 56.8910448,14.900125 57.5623256,14.6755 C59.0727073,14.22625 60.583089,13.851875 62.0934707,13.552375 C88.0216903,8.311125 115.712022,18.41925 129.473277,40.133 C146.423117,66.713625 135.934355,100.3325 106.314091,115.3075 L106.314091,115.3075 Z" fill="#C77083"></path>
                                                    <g transform="translate(13.425615, 11.980000)">
                                                        <path d="M48.7517655,1.64725 L48.7517655,1.64725 L42.122868,107.295875 C58.3175164,112.3125 76.7777375,111.414 92.8884758,103.252625 C122.50874,88.3525 132.997501,54.733625 116.131572,28.227875 C102.454227,6.589 74.6799851,-3.594 48.7517655,1.64725 L48.7517655,1.64725 Z" fill="#D3E8EF"></path>
                                                        <path d="M30.9628253,8.0865 C31.2984657,7.861875 31.634106,7.63725 32.0536565,7.4875 L32.0536565,7.4875 C25.9282195,10.557375 20.6418835,14.52575 16.1946484,19.01825 C16.7820191,18.41925 17.4532999,17.745375 18.1245806,17.146375 L14.6003566,90.1495 C13.5934355,89.026375 12.5865143,87.828375 11.5795932,86.630375 C15.775098,92.09625 20.8936138,96.663625 26.6834104,100.3325 C26.0121296,99.88325 25.2569388,99.508875 24.585658,98.98475 L30.9628253,8.0865 L30.9628253,8.0865 Z" fill="#D3E8EF"></path>
                                                        <path d="M9.23011051,27.554 C9.81748118,26.6555 10.4887619,25.757 11.1600427,24.8585 C-0.419550478,40.4325 -2.76903315,60.7985 6.54498746,78.61875 C6.04152688,77.5705 5.53806631,76.52225 5.03460573,75.399125 L9.23011051,27.554 L9.23011051,27.554 Z" fill="#D3E8EF"></path>
                                                        <path d="M18.1245806,17.0715 C17.4532999,17.6705 16.8659292,18.344375 16.1946484,18.943375 C15.775098,19.392625 15.3555475,19.841875 14.935997,20.291125 C13.6773456,21.638875 12.5026042,22.986625 11.4956831,24.40925 C11.411773,24.559 11.2439528,24.70875 11.1600427,24.8585 C10.4887619,25.757 9.90139128,26.6555 9.23011051,27.554 L5.03460573,75.399125 C5.53806631,76.447375 6.04152688,77.495625 6.54498746,78.61875 C7.21626822,79.9665 7.88754898,81.239375 8.72664994,82.51225 C9.64966099,83.934875 10.572672,85.20775 11.5795932,86.5555 C12.5026042,87.7535 13.5095254,88.9515 14.6003566,90.074625 L18.1245806,17.0715 L18.1245806,17.0715 Z" fill="#FFFFFF"></path>
                                                        <path d="M48.7517655,1.64725 C47.2413838,1.94675 45.7310021,2.321125 44.2206204,2.770375 C43.4654295,2.995 42.7941487,3.219625 42.122868,3.44425 C41.0320367,3.818625 39.9412055,4.193 38.8503743,4.567375 C38.2630036,4.792 37.6756329,5.016625 37.0882622,5.24125 C35.4100603,5.915125 33.7318584,6.663875 32.1375666,7.4875 L32.1375666,7.4875 C31.8019262,7.712125 31.4662858,7.93675 31.0467354,8.0865 L24.6695681,98.909875 C25.3408489,99.359125 26.0960397,99.808375 26.7673205,100.257625 C27.5225114,100.78175 28.2777022,101.231 29.1168032,101.68025 C30.0398142,102.204375 31.0467354,102.7285 32.0536565,103.252625 C32.5571171,103.47725 33.0605777,103.77675 33.5640382,104.001375 C34.7387796,104.5255 35.997431,105.1245 37.1721723,105.57375 C37.4239026,105.648625 37.6756329,105.798375 38.0112733,105.87325 C39.4377449,106.397375 40.7803065,106.9215 42.2067781,107.37075 L42.2067781,107.37075 L42.2067781,107.37075 L48.7517655,1.64725 L48.7517655,1.64725 L48.7517655,1.64725 Z" fill="#FFFFFF"></path>
                                                    </g>
                                                </g>
                                            </g>
                                        </g>
                                    </g>
                                </g>
                                <g id="Clipped" transform="translate(21.187575, 32.000000)" sketch:type="MSShapeGroup">
                                    <g id="Group" transform="translate(0.391010, 0.462500)">
                                        <g>
                                            <path d="M40.5285762,120.623625 C23.8304671,124.966375 6.37716726,116.35575 1.51038172,101.455625 C-3.35640382,86.5555 6.29325717,70.9815 22.9913662,66.63875 L274.973383,1.4975 C291.671492,-2.84525 309.124792,5.765375 313.991578,20.6655 C318.858363,35.565625 309.208702,51.139625 292.510593,55.482375 L40.5285762,120.623625 L40.5285762,120.623625 Z" id="Shape" fill="#404041"></path>
                                            <g transform="translate(10.069211, 74.875000)">
                                                <ellipse id="Oval" fill="#FACEC6" cx="21.7327148" cy="18.793625" rx="20.9775239" ry="18.71875"></ellipse>
                                                <path d="M27.5225114,36.763625 C16.3624686,39.608875 4.78287545,33.918375 1.51038172,23.96 C-1.76211201,14.001625 4.69896535,3.668875 15.8590081,0.74875 L27.5225114,36.763625 L27.5225114,36.763625 Z" id="Shape" opacity="0.1" fill="#231F20"></path>
                                            </g>
                                            <g transform="translate(60.415269, 61.397500)">
                                                <ellipse id="Oval" fill="#FBC6A2" cx="21.7327148" cy="19.168" rx="20.9775239" ry="18.71875"></ellipse>
                                                <path d="M27.6064214,37.212875 C16.4463787,40.058125 4.86678554,34.367625 1.59429182,24.40925 C-1.59429182,14.450875 4.78287545,4.118125 15.9429182,1.198 L27.6064214,37.212875 L27.6064214,37.212875 Z" id="Shape" opacity="0.1" fill="#231F20"></path>
                                            </g>
                                            <g transform="translate(110.761326, 48.668750)">
                                                <ellipse id="Oval" fill="#FDCE99" cx="21.8166249" cy="18.8685" rx="20.9775239" ry="18.71875"></ellipse>
                                                <path d="M27.6064214,36.8385 C16.4463787,39.68375 4.86678554,33.99325 1.59429182,24.034875 C-1.59429182,14.0765 4.78287545,3.74375 15.9429182,0.823625 L27.6064214,36.8385 L27.6064214,36.8385 Z" id="Shape" opacity="0.1" fill="#231F20"></path>
                                            </g>
                                            <g transform="translate(161.946484, 35.191250)">
                                                <ellipse id="Oval" fill="#D6A477" cx="20.9775239" cy="19.31775" rx="20.9775239" ry="18.71875"></ellipse>
                                                <path d="M26.8512306,37.28775 C15.6911879,40.133 4.11159468,34.4425 0.839100956,24.484125 C-2.34948268,14.52575 4.02768459,4.193 15.1877273,1.272875 L26.8512306,37.28775 L26.8512306,37.28775 Z" id="Shape" opacity="0.1" fill="#231F20"></path>
                                            </g>
                                            <g transform="translate(212.292542, 22.462500)">
                                                <ellipse id="Oval" fill="#B99664" cx="21.061434" cy="19.01825" rx="20.9775239" ry="18.71875"></ellipse>
                                                <path d="M26.8512306,36.98825 C15.6911879,39.8335 4.11159468,34.143 0.839100956,24.184625 C-2.34948268,14.22625 4.02768459,3.8935 15.1877273,0.973375 L26.8512306,36.98825 L26.8512306,36.98825 Z" id="Shape" opacity="0.1" fill="#231F20"></path>
                                            </g>
                                            <g transform="translate(262.638599, 9.733750)">
                                                <ellipse id="Oval" fill="#967348" cx="21.061434" cy="18.71875" rx="20.9775239" ry="18.71875"></ellipse>
                                                <path d="M26.9351407,36.68875 C15.775098,39.534 4.19550478,33.8435 0.923011051,23.885125 C-2.34948268,13.92675 4.11159468,3.594 15.2716374,0.673875 L26.9351407,36.68875 L26.9351407,36.68875 Z" id="Shape" opacity="0.1" fill="#231F20"></path>
                                            </g>
                                        </g>
                                    </g>
                                </g>
                                <g id="Clipped" transform="translate(383.996891, 149.666119) rotate(54.000000) translate(-383.996891, -149.666119) translate(316.996891, 69.666119)">
                                    <g id="Group" transform="translate(-0.000000, 0.000000)">
                                        <g transform="translate(0.830538, 0.307500)">
                                            <g>
                                                <g transform="translate(0.000000, 77.121250)">
                                                    <g id="XMLID_367_-link" transform="translate(-0.000000, 0.000000)" fill="#E1A99E" sketch:type="MSShapeGroup">
                                                        <path d="M67.4637168,11.381 C69.2258289,9.13475 70.5683904,4.34275 69.5614692,3.668875 L64.7785938,0.599 C63.7716726,-0.074875 58.9887972,2.6955 57.2266852,4.792 L55.2128429,3.519125 L1.51038172,70.008125 C0.0839100956,71.73025 0.251730287,73.9765 1.8460221,75.02475 L10.2370317,80.41575 C11.8313235,81.464 14.2647162,80.865 15.6911879,79.068 L69.393649,12.579 L67.4637168,11.381 L67.4637168,11.381 Z" id="XMLID_367_"></path>
                                                    </g>
                                                    <g id="Clipped" transform="translate(-0.000000, 0.000000)">
                                                        <mask id="mask-4" sketch:name="XMLID_367_" fill="white">
                                                            <use xlink:href="#path-3"></use>
                                                        </mask>
                                                        <g id="XMLID_367_"></g>
                                                        <path d="M74.0926144,-7.712125 L2.51730287,82.437375 L31.9697464,85.132875 L83.6583653,2.920125 L74.0926144,-7.712125" id="Shape" fill="#C77083" sketch:type="MSShapeGroup" mask="url(#mask-4)"></path>
                                                    </g>
                                                </g>
                                                <g transform="translate(64.610774, 0.000000)" sketch:type="MSShapeGroup">
                                                    <path d="M4.19550478,80.266 L62.2612909,8.386 C64.107313,6.064875 65.7016048,2.620625 64.7785938,2.021625 C63.7716726,1.422625 60.583089,3.8935 58.7370669,6.13975 L0.671280765,78.01975 L4.19550478,80.266 L4.19550478,80.266 Z" id="Shape" fill="#404041"></path>
                                                    <path d="M37.900663,31.9185311 L41.4401922,34.1950606 L37.4170891,39.1756258 L33.8775599,36.8990963 L37.900663,31.9185311 L37.900663,31.9185311 Z" id="Rectangle-path" fill="#E4A1A8"></path>
                                                    <g transform="translate(33.564038, 0.000000)" fill="#333333">
                                                        <path d="M32.0536565,8.760375 L23.2430965,3.069875 C22.7396359,3.2945 22.3200854,3.594 21.8166249,3.8935 L31.5501959,10.108125 C31.7180161,9.73375 31.8858363,9.209625 32.0536565,8.760375 L32.0536565,8.760375 Z" id="Shape"></path>
                                                        <path d="M32.7249373,6.13975 L25.9282195,1.722125 C25.424759,1.94675 24.9212984,2.171375 24.4178378,2.470875 L32.3892969,7.63725 C32.5571171,7.188 32.6410272,6.663875 32.7249373,6.13975 L32.7249373,6.13975 Z" id="Shape"></path>
                                                        <path d="M33.0605777,3.2945 L28.948983,0.673875 C28.3616123,0.823625 27.7742416,1.04825 27.186871,1.272875 L32.9766676,4.94175 C33.0605777,4.417625 33.0605777,3.818625 33.0605777,3.2945 L33.0605777,3.2945 Z" id="Shape"></path>
                                                        <path d="M30.8789152,11.605625 L20.4740633,4.866875 L19.5510523,5.99 L30.2915445,12.8785 C30.5432748,12.504125 30.711095,12.054875 30.8789152,11.605625 L30.8789152,11.605625 Z" id="Shape"></path>
                                                        <path id="Shape" d="M29.6202637,14.376 L29.6202637,14.376 C29.5363536,14.450875 29.4524435,14.52575 29.4524435,14.600625 L29.6202637,14.376 L29.6202637,14.376 Z"></path>
                                                        <path d="M29.6202637,14.301125 L18.6280412,7.188 L17.7050302,8.311125 L28.7811628,15.42425 L29.5363536,14.52575 C29.5363536,14.52575 29.5363536,14.376 29.6202637,14.301125 L29.6202637,14.301125 Z" id="Shape"></path>
                                                        <path d="M26.8623235,17.8353448 L15.7672608,10.6993006 L16.6994432,9.54526716 L27.7945059,16.6813114 L26.8623235,17.8353448 L26.8623235,17.8353448 Z" id="Rectangle-path"></path>
                                                        <path d="M24.9115061,20.1759523 L13.8164433,13.039908 L14.7486258,11.8858746 L25.8436885,19.0219189 L24.9115061,20.1759523 L24.9115061,20.1759523 Z" id="Rectangle-path"></path>
                                                        <path d="M23.026491,22.5618367 L11.9314282,15.4257924 L12.8636106,14.271759 L23.9586734,21.4078033 L23.026491,22.5618367 L23.026491,22.5618367 Z" id="Rectangle-path"></path>
                                                        <path d="M21.1904542,24.8869825 L10.0953914,17.7509382 L11.0275738,16.5969048 L22.1226366,23.7329491 L21.1904542,24.8869825 L21.1904542,24.8869825 Z" id="Rectangle-path"></path>
                                                        <path d="M8.18487602,20.0848369 L9.11705844,18.9308035 L20.2121212,26.0668477 L19.2799388,27.2208811 L8.18487602,20.0848369 L8.18487602,20.0848369 Z" id="Rectangle-path"></path>
                                                        <path d="M7.2186177,21.2754692 L18.3136804,28.4115134 L17.381498,29.5655468 L6.28643528,22.4295026 L7.2186177,21.2754692 L7.2186177,21.2754692 Z" id="Rectangle-path"></path>
                                                        <path d="M5.33057342,23.6874176 L16.4256362,30.8234618 L15.4934537,31.9774952 L4.398391,24.841451 L5.33057342,23.6874176 L5.33057342,23.6874176 Z" id="Rectangle-path"></path>
                                                        <path d="M3.42469825,25.9961957 L14.519761,33.1322399 L13.5875786,34.2862733 L2.49251583,27.1502291 L3.42469825,25.9961957 L3.42469825,25.9961957 Z" id="Rectangle-path"></path>
                                                        <path d="M1.46867001,28.3642898 L12.5637327,35.500334 L11.6315503,36.6543674 L0.536487587,29.5183232 L1.46867001,28.3642898 L1.46867001,28.3642898 Z" id="Rectangle-path"></path>
                                                    </g>
                                                </g>
                                            </g>
                                        </g>
                                    </g>
                                </g>
                            </g>
                        </g>
                    </g>
                </g>
            </g>
        </g>
    </g>
</svg>