<?xml version="1.0" encoding="UTF-8" standalone="no"?>
<svg width="281px" height="196px" viewBox="0 0 281 196" version="1.1" xmlns="http://www.w3.org/2000/svg" xmlns:xlink="http://www.w3.org/1999/xlink" xmlns:sketch="http://www.bohemiancoding.com/sketch/ns">
    <!-- Generator: Sketch 3.5.1 (25234) - http://www.bohemiancoding.com/sketch -->
    <title>Palette</title>
    <desc>Created with Sketch.</desc>
    <defs>
        <path id="path-1" d="M0.591438095,4.75367742 L13.8448254,66.1612903 C14.400581,68.7210323 17.112454,70.8083871 19.9037206,70.8246452 L19.9037206,70.8246452 L154.763203,71.5499355 C157.541981,71.5643871 160.260098,69.5005161 160.833695,66.9416774 L160.833695,66.9416774 L174.658895,5.53406452 C175.237844,2.97432258 172.970219,0.88516129 169.594651,0.870709677 L169.594651,0.870709677 L5.73329206,0.144516129 L5.6958254,0.144516129 L5.6958254,0.144516129 C2.32650159,0.144516129 0.0446031746,2.20477419 0.591438095,4.75367742"></path>
        <path id="path-3" d="M0.591438095,4.75367742 L13.8448254,66.1612903 C14.400581,68.7210323 17.112454,70.8083871 19.9037206,70.8246452 L19.9037206,70.8246452 L154.763203,71.5499355 C157.541981,71.5643871 160.260098,69.5005161 160.833695,66.9416774 L160.833695,66.9416774 L174.658895,5.53406452 C175.237844,2.97432258 172.970219,0.88516129 169.594651,0.870709677 L169.594651,0.870709677 L5.73329206,0.144516129 L5.6958254,0.144516129 L5.6958254,0.144516129 C2.32650159,0.144516129 0.0446031746,2.20477419 0.591438095,4.75367742"></path>
        <path id="path-5" d="M0,0.562709677 L280.395181,0.562709677 L280.395181,196 L0,196 L0,0.562709677 Z"></path>
    </defs>
    <g id="Accueil" stroke="none" stroke-width="1" fill="none" fill-rule="evenodd" sketch:type="MSPage">
        <g id="Desktop" sketch:type="MSArtboardGroup" transform="translate(-355.000000, -2241.000000)">
            <g id="Footer" sketch:type="MSLayerGroup" transform="translate(0.000000, 2204.000000)">
                <g id="Palette" transform="translate(355.000000, 37.000000)">
                    <g id="Group-9" transform="translate(40.142857, 0.000000)" sketch:type="MSShapeGroup">
                        <path d="M71.7027254,91.5913419 C71.6920206,93.7599871 69.9453603,95.5086323 67.8044079,95.4977935 L50.8819635,95.4065677 C48.740119,95.3948258 47.0130841,93.6272129 47.024681,91.4585677 C47.0362778,89.2899226 48.782046,87.5412774 50.9238905,87.5530194 L67.8454429,87.6442452 C69.9872873,87.6559871 71.7143222,89.4226968 71.7027254,91.5913419" id="Fill-1" fill="#333333"></path>
                        <path d="M154.905577,92.0398839 C154.893088,94.2076258 153.149103,95.9571742 151.005475,95.9454323 L134.084815,95.8551097 C131.94297,95.8424645 130.215935,94.0748516 130.227532,91.9071097 C130.239129,89.7384645 131.984897,87.9898194 134.12585,88.0015613 L151.047402,88.0927871 C153.190138,88.104529 154.917173,89.8712387 154.905577,92.0398839" id="Fill-3" fill="#333333"></path>
                        <path d="M180.411188,82.7928387 C179.766226,85.9478065 176.721614,88.4912903 173.610096,88.474129 L22.5650137,87.6612258 C19.4401152,87.6449677 16.402639,85.0734839 15.7817629,81.9194194 L0.961912063,6.24354839 C0.347280317,3.08858065 2.92712794,0.546 6.72375016,0.56316129 L190.282763,1.37606452 C194.066004,1.39232258 196.603033,3.96290323 195.95361,7.11696774 L180.411188,82.7928387 Z" id="Fill-5" fill="#424242"></path>
                        <path d="M172.43061,75.9741161 C171.857013,78.5338581 169.138896,80.5968258 166.360118,80.5823742 L31.5006352,79.8561806 C28.7093686,79.8408258 25.9974956,77.753471 25.44174,75.193729 L12.1883527,13.7861161 C11.6388416,11.2272774 13.9403654,9.1616 17.3302067,9.17695484 L181.190673,9.90314839 C184.567134,9.9176 186.833867,12.0067613 186.25581,14.5665032 L172.43061,75.9741161 Z" id="Fill-7" fill="#E1EFEF"></path>
                    </g>
                    <g id="Group-16" transform="translate(51.739683, 9.032258)">
                        <g id="Group-12">
                            <mask id="mask-2" sketch:name="Clip 11" fill="white">
                                <use xlink:href="#path-1"></use>
                            </mask>
                            <g id="Clip-11"></g>
                            <path d="M57.7720835,-1.41490323 L5.7085819,42.1431613 L7.20457238,47.7079355 L67.8372359,-1.97851613" id="Fill-10" fill="#FCFCFC" sketch:type="MSShapeGroup" mask="url(#mask-2)"></path>
                        </g>
                        <g id="Group-15">
                            <mask id="mask-4" sketch:name="Clip 14" fill="white">
                                <use xlink:href="#path-3"></use>
                            </mask>
                            <g id="Clip-14"></g>
                            <path d="M79.0466381,-2.58494194 L5.12936508,59.2571226 L11.6307238,75.8258968 L109.920063,-2.98597419" id="Fill-13" fill="#FCFCFC" sketch:type="MSShapeGroup" mask="url(#mask-4)"></path>
                        </g>
                    </g>
                    <g id="Group-140">
                        <path d="M215.685163,190.319523 C215.668214,193.471781 213.129401,196.017071 210.014315,195.99991 L70.4037025,195.247523 C67.2886168,195.231265 64.7774581,192.658877 64.7944073,189.506619 L65.2591724,100.977845 C65.2761216,97.8246839 67.8149343,95.2812 70.9291279,95.2974581 L210.539741,96.0498452 C213.654826,96.0661032 216.166877,98.6384903 216.149928,101.790748 L215.685163,190.319523 Z" id="Fill-17" fill="#424242" sketch:type="MSShapeGroup"></path>
                        <path d="M195.471807,123.476387 C195.463778,124.808645 194.476264,125.88529 193.263058,125.878065 L177.618048,125.794065 C176.405734,125.787742 175.428032,124.701161 175.436061,123.368 L175.473528,116.125032 C175.480664,114.791871 176.46907,113.714323 177.682277,113.720645 L193.327286,113.805548 C194.539601,113.811871 195.51641,114.899355 195.510166,116.233419 L195.471807,123.476387 Z" id="Fill-19" fill="#CB6133" sketch:type="MSShapeGroup"></path>
                        <path d="M193.178847,113.805548 C194.391161,113.811871 195.367971,114.899355 195.361726,116.233419 L195.323368,123.476387 C195.316231,124.808645 194.327825,125.88529 193.11551,125.878065 L177.470501,125.794065" id="Fill-21" fill="#8E6455" sketch:type="MSShapeGroup"></path>
                        <path d="M195.38376,140.284426 C195.376624,141.617587 194.387325,142.694232 193.175011,142.68791 L177.530894,142.603006 C176.317687,142.596684 175.339094,141.510103 175.347122,140.176039 L175.385481,132.933974 C175.391725,131.59991 176.381024,130.525071 177.59423,130.531394 L193.238348,130.615394 C194.450662,130.622619 195.428363,131.708297 195.421227,133.041458 L195.38376,140.284426 Z" id="Fill-23" fill="#994826" sketch:type="MSShapeGroup"></path>
                        <path d="M193.178847,130.666065 C194.391161,130.672387 195.367971,131.759871 195.361726,133.093935 L195.323368,140.336903 C195.316231,141.669161 194.327825,142.745806 193.11551,142.738581 L177.470501,142.654581" id="Fill-25" fill="#635753" sketch:type="MSShapeGroup"></path>
                        <path d="M195.294911,157.094632 C195.287774,158.425987 194.299368,159.503535 193.086162,159.497213 L177.442044,159.41231 C176.228838,159.405987 175.251136,158.3176 175.259165,156.987148 L175.296631,149.744181 C175.303768,148.410116 176.292174,147.333471 177.506273,147.340697 L193.15039,147.424697 C194.363597,147.431019 195.340406,148.5176 195.332377,149.851665 L195.294911,157.094632 Z" id="Fill-27" fill="#D6805C" sketch:type="MSShapeGroup"></path>
                        <path d="M193.178847,147.526129 C194.391161,147.532452 195.367971,148.619935 195.361726,149.954 L195.323368,157.196968 C195.316231,158.529226 194.327825,159.605871 193.11551,159.598645 L177.470501,159.514645" id="Fill-29" fill="#635753" sketch:type="MSShapeGroup"></path>
                        <path d="M195.206061,173.903123 C195.199817,175.237187 194.21141,176.313832 192.998204,176.30751 L177.354087,176.222606 C176.141772,176.216284 175.163179,175.1288 175.170315,173.794735 L175.207782,166.553574 C175.214918,165.221316 176.205109,164.141961 177.417423,164.149187 L193.062433,164.233187 C194.274747,164.23951 195.252449,165.329703 195.24442,166.661058 L195.206061,173.903123 Z" id="Fill-31" fill="#EBC0AD" sketch:type="MSShapeGroup"></path>
                        <path d="M193.178847,164.235806 C194.391161,164.242129 195.367971,165.329613 195.361726,166.663677 L195.323368,173.906645 C195.316231,175.238903 194.327825,176.315548 193.11551,176.308323 L177.470501,176.224323" id="Fill-33" fill="#635753" sketch:type="MSShapeGroup"></path>
                        <path d="M137.708912,134.746839 C137.69107,138.173677 135.151366,140.937548 132.035388,140.920387 L91.8443594,140.704516 C88.7301657,140.687355 86.2181149,137.896387 86.2368483,134.469548 L86.3340832,115.862194 C86.3528165,112.438065 88.8934133,109.672387 92.007607,109.689548 L132.197743,109.906323 C135.313721,109.922581 137.82488,112.715355 137.807039,116.139484 L137.708912,134.746839 Z" id="Fill-35" fill="#F8DCCE" sketch:type="MSShapeGroup"></path>
                        <path d="M132.198011,109.905961 C135.313989,109.923123 137.825148,112.714994 137.807306,116.139123 L137.709179,134.746477 C137.691338,138.173316 135.151633,140.937187 132.035656,140.920929 L91.844627,140.705058" id="Fill-37" fill="#B29A8E" sketch:type="MSShapeGroup"></path>
                        <path d="M137.510695,172.586671 C137.491962,176.0108 134.951365,178.775574 131.835387,178.758413 L91.6461429,178.542542 C88.5310571,178.525381 86.0198984,175.73351 86.0377397,172.309381 L86.1349746,153.699316 C86.1537079,150.275187 88.6943048,147.512219 91.8084984,147.528477 L131.998635,147.745252 C135.115505,147.762413 137.625771,150.552477 137.60793,153.976606 L137.510695,172.586671 Z" id="Fill-39" fill="#E5BDAC" sketch:type="MSShapeGroup"></path>
                        <path d="M132.561705,147.839639 C135.677683,147.8568 138.188842,150.648671 138.171001,154.0728 L138.072874,172.681058 C138.055032,176.106994 135.515328,178.871768 132.39935,178.854606 L92.2083213,178.638735" id="Fill-41" fill="#A3715F" sketch:type="MSShapeGroup"></path>
                        <path d="M151.33991,175.404826 C151.360427,177.544568 149.614659,179.296826 147.438916,179.318503 C145.264065,179.339277 143.484398,177.622245 143.464773,175.482503 L143.066913,134.007277 C143.045503,131.867535 144.791271,130.116181 146.967014,130.094503 C149.142757,130.073729 150.921532,131.789858 150.942941,133.9296 L151.33991,175.404826 Z" id="Fill-43" fill="#3A3939" sketch:type="MSShapeGroup"></path>
                        <path d="M149.262204,139.854852 L149.063274,177.576271 C149.060598,178.1724 148.13642,178.652013 147.000823,178.64569 C145.86255,178.639368 144.944617,178.149819 144.948185,177.55369 L145.145331,139.931626" id="Fill-45" fill="#6E7BBD" sketch:type="MSShapeGroup"></path>
                        <path d="M144.917766,154.186516 L144.993591,139.678 L149.263007,139.700581 L149.18629,154.209097 L144.917766,154.186516 Z" id="Fill-47" fill="#E2E2E2" sketch:type="MSShapeGroup"></path>
                        <path d="M150.141155,137.884826 C150.132234,139.548568 148.795031,140.888052 147.152742,140.879019 C145.511345,140.869987 144.187523,139.516052 144.195551,137.853213 L144.211609,135.07489 C144.218745,133.412052 145.55684,132.071665 147.199129,132.080697 C148.841418,132.089729 150.164348,133.443665 150.15632,135.107406 L150.141155,137.884826 Z" id="Fill-49" fill="#EEEEEE" sketch:type="MSShapeGroup"></path>
                        <path d="M170.039255,174.512168 C170.066909,177.417845 166.887595,179.804168 162.931293,179.843006 C158.977668,179.881845 155.750182,177.558748 155.722528,174.653071 L155.18283,118.338748 C155.154284,115.433071 158.336274,113.046748 162.290792,113.00791 C166.246201,112.968168 169.471011,115.292168 169.499557,118.196942 L170.039255,174.512168 Z" id="Fill-51" fill="#3A3939" sketch:type="MSShapeGroup"></path>
                        <path d="M167.178408,142.392555 L158.38623,142.344684 L158.429941,133.785716 L167.222119,133.833587 L167.178408,142.392555 Z" id="Fill-53" fill="#E2E2E2" sketch:type="MSShapeGroup"></path>
                        <path d="M167.743797,142.402671 L167.575197,174.593639 C167.560924,177.35751 165.758064,179.585768 163.552883,179.574026 L161.754483,179.56409 C159.546626,179.552348 157.768743,177.304219 157.783017,174.541252 L157.953401,142.187703" id="Fill-55" fill="#6E7BBD" sketch:type="MSShapeGroup"></path>
                        <path d="M168.860572,119.136206 C167.49393,115.894529 163.442178,115.576594 162.931026,115.546787 L162.931026,115.543174 C162.931026,115.543174 162.913184,115.545884 162.901588,115.544981 C162.894451,115.544981 162.875718,115.543174 162.875718,115.543174 L162.875718,115.545884 C162.364565,115.570271 158.311029,115.844852 156.909597,119.071174 C155.414499,122.518787 158.401127,133.9464 158.401127,133.9464 L162.873042,133.970787 L163.291419,133.973497 L167.211146,133.994271 C167.211146,133.994271 170.319096,122.600077 168.860572,119.136206" id="Fill-57" fill="#C3AE95" sketch:type="MSShapeGroup"></path>
                        <path d="M277.382147,180.050206 C277.366982,182.937819 275.042265,185.267239 272.189446,185.252787 L207.627243,184.904142 C204.773531,184.888787 202.473792,182.534077 202.489849,179.647368 L202.826157,115.583368 C202.842214,112.696658 205.164255,110.365432 208.017966,110.380787 L272.581062,110.728529 C275.432989,110.743884 277.734512,113.1004 277.719347,115.98711 L277.382147,180.050206 Z" id="Fill-59" fill="#060606" sketch:type="MSShapeGroup"></path>
                        <g id="Group-63">
                            <mask id="mask-6" sketch:name="Clip 62" fill="white">
                                <use xlink:href="#path-5"></use>
                            </mask>
                            <g id="Clip-62"></g>
                            <path d="M280.058338,179.146981 C280.043173,182.034594 277.718455,184.364013 274.865636,184.349561 L210.303433,184.000916 C207.449722,183.985561 205.149982,181.630852 205.166039,178.744142 L205.502347,114.680142 C205.518404,111.793432 207.840446,109.462206 210.694157,109.477561 L275.257252,109.825303 C278.109179,109.840658 280.410703,112.197174 280.395538,115.083884 L280.058338,179.146981 Z" id="Fill-61" fill="#4D4D4D" sketch:type="MSShapeGroup" mask="url(#mask-6)"></path>
                        </g>
                        <path d="M256.444793,126.721497 C256.468878,122.027432 260.248551,118.242916 264.881929,118.268206 C269.517983,118.292594 273.255729,122.118658 273.230751,126.812723 C273.205774,131.505884 269.428777,135.289497 264.792723,135.264206 C260.158453,135.239819 256.419815,131.415561 256.444793,126.721497" id="Fill-64" fill="#965A45" sketch:type="MSShapeGroup"></path>
                        <path d="M269.501748,119.889045 C273.2725,122.4804 274.25377,127.676658 271.695332,131.49369 C269.136002,135.311626 264.00396,136.306077 260.233208,133.715626" id="Fill-66" fill="#593737" sketch:type="MSShapeGroup"></path>
                        <path d="M235.785405,126.61031 C235.809491,121.916245 239.58738,118.131729 244.222542,118.157019 C248.857703,118.181406 252.597234,122.007471 252.571364,126.701535 C252.547278,131.394697 248.770281,135.17831 244.132443,135.153019 C239.498173,135.128632 235.760427,131.304374 235.785405,126.61031" id="Fill-68" fill="#B58774" sketch:type="MSShapeGroup"></path>
                        <path d="M248.872779,119.889045 C252.643532,122.4804 253.624802,127.676658 251.066363,131.49369 C248.507033,135.311626 243.374992,136.306077 239.60424,133.715626" id="Fill-70" fill="#593737" sketch:type="MSShapeGroup"></path>
                        <path d="M215.125036,126.499213 C215.149122,121.805148 218.927903,118.020632 223.563957,118.045923 C228.198227,118.07031 231.935081,121.895471 231.910103,126.589535 C231.886017,131.2836 228.10902,135.06631 223.473858,135.041923 C218.837804,135.016632 215.10095,131.193277 215.125036,126.499213" id="Fill-72" fill="#FCD9B3" sketch:type="MSShapeGroup"></path>
                        <path d="M228.466827,119.889045 C232.237579,122.4804 233.218849,127.676658 230.660411,131.49369 C228.101081,135.311626 222.96904,136.306077 219.198287,133.715626" id="Fill-74" fill="#593737" sketch:type="MSShapeGroup"></path>
                        <path d="M256.33159,148.294774 C256.356568,143.601613 260.134457,139.816194 264.768726,139.841484 C269.403888,139.866774 273.143418,143.691935 273.117549,148.385097 C273.093463,153.078258 269.314682,156.862774 264.67952,156.837484 C260.044358,156.812194 256.307504,152.987935 256.33159,148.294774" id="Fill-76" fill="#593737" sketch:type="MSShapeGroup"></path>
                        <path d="M269.501748,141.453561 C273.2725,144.044916 274.25377,149.241174 271.695332,153.058206 C269.136002,156.876142 264.00396,157.870594 260.233208,155.280142" id="Fill-78" fill="#593737" sketch:type="MSShapeGroup"></path>
                        <path d="M235.671221,148.183677 C235.695307,143.490516 239.47498,139.705097 244.108357,139.729484 C248.745303,139.755677 252.48305,143.580839 252.458072,148.274 C252.433986,152.967161 248.656097,156.750774 244.019151,156.726387 C239.384881,156.701097 235.647135,152.875935 235.671221,148.183677" id="Fill-80" fill="#E89A82" sketch:type="MSShapeGroup"></path>
                        <path d="M248.872779,141.453561 C252.643532,144.044916 253.624802,149.241174 251.066363,153.058206 C248.507033,156.876142 243.374992,157.870594 239.60424,155.280142" id="Fill-82" fill="#593737" sketch:type="MSShapeGroup"></path>
                        <path d="M215.011833,148.072129 C215.035919,143.378968 218.8147,139.593548 223.449862,139.618839 C228.085024,139.643226 231.821878,143.46929 231.7969,148.162452 C231.771922,152.855613 227.99671,156.640129 223.359763,156.614839 C218.725494,156.590452 214.986856,152.76529 215.011833,148.072129" id="Fill-84" fill="#FC7A77" sketch:type="MSShapeGroup"></path>
                        <path d="M228.466827,141.453561 C232.237579,144.044916 233.218849,149.241174 230.660411,153.058206 C228.101081,156.876142 222.96904,157.870594 219.198287,155.280142" id="Fill-86" fill="#593737" sketch:type="MSShapeGroup"></path>
                        <path d="M256.225345,168.558735 C256.249431,163.866477 260.028212,160.081058 264.662482,160.106348 C269.297643,160.130735 273.036282,163.955897 273.010412,168.649058 C272.986326,173.344026 269.209329,177.127639 264.572383,177.103252 C259.939005,177.077961 256.200367,173.253703 256.225345,168.558735" id="Fill-88" fill="#A0D393" sketch:type="MSShapeGroup"></path>
                        <path d="M269.39024,161.889045 C273.160992,164.4804 274.142262,169.676658 271.583824,173.49369 C269.024494,177.311626 263.892452,178.306077 260.1217,175.715626" id="Fill-90" fill="#593737" sketch:type="MSShapeGroup"></path>
                        <path d="M235.564976,168.447187 C235.589954,163.754929 239.367843,159.96951 244.003005,159.9948 C248.638167,160.019187 252.376805,163.845252 252.351827,168.53751 C252.327741,173.232477 248.54896,177.016994 243.912906,176.991703 C239.278637,176.967316 235.54089,173.142155 235.564976,168.447187" id="Fill-92" fill="#66965A" sketch:type="MSShapeGroup"></path>
                        <path d="M248.538256,161.550335 C252.309008,164.14169 253.290278,169.337948 250.73184,173.154981 C248.17251,176.972916 243.040468,177.967368 239.269716,175.376916" id="Fill-94" fill="#593737" sketch:type="MSShapeGroup"></path>
                        <path d="M214.905499,168.335548 C214.929585,163.64329 218.708366,159.858774 223.342636,159.883161 C227.97869,159.908452 231.714652,163.733613 231.689674,168.426774 C231.664696,173.120839 227.889483,176.905355 223.25343,176.880065 C218.618268,176.855677 214.881414,173.030516 214.905499,168.335548" id="Fill-96" fill="#9AAD79" sketch:type="MSShapeGroup"></path>
                        <path d="M228.132303,161.550335 C231.903056,164.14169 232.884325,169.337948 230.325887,173.154981 C227.766557,176.972916 222.634516,177.967368 218.863763,175.376916" id="Fill-98" fill="#593737" sketch:type="MSShapeGroup"></path>
                        <path d="M78.4616229,179.848606 C78.4464578,182.735316 76.1217403,185.064735 73.2689213,185.050284 L8.70761016,184.702542 C5.85389905,184.687187 3.5532673,182.331574 3.56843238,179.444865 L3.90474032,115.380865 C3.92079746,112.495058 6.24551492,110.163832 9.09833397,110.179187 L73.6605371,110.526929 C76.5142483,110.542284 78.8139879,112.897897 78.7979308,115.784606 L78.4616229,179.848606 Z" id="Fill-100" fill="#060606" sketch:type="MSShapeGroup"></path>
                        <path d="M74.8933689,178.042155 C74.8782038,180.928865 72.5534863,183.258284 69.7006673,183.243832 L5.13935619,182.89609 C2.28564508,182.880735 -0.0149866667,180.525123 0.000178412698,177.638413 L0.336486349,113.574413 C0.352543492,110.688606 2.67726095,108.357381 5.53008,108.372735 L70.0922832,108.720477 C72.9459943,108.735832 75.245734,111.091445 75.2296768,113.978155 L74.8933689,178.042155 Z" id="Fill-102" fill="#4D4D4D" sketch:type="MSShapeGroup"></path>
                        <path d="M50.2304895,125.610529 C50.2554673,120.916465 54.0333562,117.131948 58.6694102,117.157239 C63.3045721,117.182529 67.040534,121.00769 67.0164483,125.701755 C66.9914705,130.394916 63.2144737,134.178529 58.5793117,134.153239 C53.9441498,134.128852 50.2055117,130.304594 50.2304895,125.610529" id="Fill-104" fill="#C279C2" sketch:type="MSShapeGroup"></path>
                        <path d="M63.3605937,118.760013 C67.131346,121.351368 68.1126159,126.547626 65.5541778,130.364658 C62.9948476,134.182594 57.8628063,135.177045 54.092054,132.586594" id="Fill-106" fill="#593737" sketch:type="MSShapeGroup"></path>
                        <path d="M29.5702098,125.499342 C29.5951876,120.805277 33.3721844,117.020761 38.0082384,117.046052 C42.6434003,117.070439 46.3820384,120.8956 46.3570606,125.589665 C46.3320829,130.282826 42.554194,134.067342 37.9190321,134.042052 C33.2829781,134.017665 29.5461241,130.193406 29.5702098,125.499342" id="Fill-108" fill="#AF91AF" sketch:type="MSShapeGroup"></path>
                        <path d="M42.7316254,118.760013 C46.5023778,121.351368 47.4836476,126.547626 44.9252095,130.364658 C42.3658794,134.182594 37.2338381,135.177045 33.4630857,132.586594" id="Fill-110" fill="#593737" sketch:type="MSShapeGroup"></path>
                        <path d="M8.91073302,125.387794 C8.93481873,120.693729 12.7127076,116.909213 17.3478695,116.934503 C21.9830314,116.95889 25.7216695,120.784955 25.6966917,125.478116 C25.672606,130.172181 21.8947171,133.955794 17.2586632,133.930503 C12.6235013,133.906116 8.88575524,130.081858 8.91073302,125.387794" id="Fill-112" fill="#E9C1E9" sketch:type="MSShapeGroup"></path>
                        <path d="M22.325673,118.760013 C26.0964254,121.351368 27.0776952,126.547626 24.5192571,130.364658 C21.959927,134.182594 16.8278857,135.177045 13.0571333,132.586594" id="Fill-114" fill="#593737" sketch:type="MSShapeGroup"></path>
                        <path d="M50.1172867,147.183897 C50.1422644,142.490735 53.9201533,138.705316 58.5553152,138.730606 C63.1904771,138.754994 66.9273311,142.580155 66.9032454,147.274219 C66.8782676,151.967381 63.1012708,155.750994 58.4661089,155.726606 C53.8300549,155.701316 50.0923089,151.876155 50.1172867,147.183897" id="Fill-116" fill="#C1D3D7" sketch:type="MSShapeGroup"></path>
                        <path d="M63.3605937,140.550335 C67.131346,143.14169 68.1126159,148.337948 65.5541778,152.154981 C62.9948476,155.972916 57.8628063,156.967368 54.092054,154.376916" id="Fill-118" fill="#593737" sketch:type="MSShapeGroup"></path>
                        <path d="M29.4564717,147.072258 C29.4814495,142.379097 33.2593384,138.593677 37.8953924,138.618065 C42.5305543,138.643355 46.2683003,142.469419 46.2433225,147.162581 C46.2192368,151.855742 42.4404559,155.640258 37.805294,155.614968 C33.1701321,155.590581 29.432386,151.765419 29.4564717,147.072258" id="Fill-120" fill="#64909B" sketch:type="MSShapeGroup"></path>
                        <path d="M42.7316254,140.324529 C46.5023778,142.915884 47.4836476,148.112142 44.9252095,151.929174 C42.3658794,155.74711 37.2338381,156.741561 33.4630857,154.15111" id="Fill-122" fill="#593737" sketch:type="MSShapeGroup"></path>
                        <path d="M8.79744095,146.96071 C8.82152667,142.267548 12.5994156,138.482129 17.2345775,138.507419 C21.8697394,138.531806 25.6074854,142.357871 25.5833997,147.051935 C25.5584219,151.744194 21.7814251,155.52871 17.1453711,155.504323 C12.5102092,155.479032 8.77246317,151.653871 8.79744095,146.96071" id="Fill-124" fill="#85C0CE" sketch:type="MSShapeGroup"></path>
                        <path d="M22.325673,140.324529 C26.0964254,142.915884 27.0776952,148.112142 24.5192571,151.929174 C21.959927,155.74711 16.8278857,156.741561 13.0571333,154.15111" id="Fill-126" fill="#593737" sketch:type="MSShapeGroup"></path>
                        <path d="M49.3645635,167.443794 C49.3895413,162.751535 53.1674302,158.966116 57.8034841,158.991406 C62.437754,159.015794 66.1755,162.841858 66.1505222,167.534116 C66.1264365,172.229084 62.3485476,176.0136 57.7133857,175.98831 C53.0782238,175.963923 49.3404778,172.138761 49.3645635,167.443794" id="Fill-128" fill="#786A64" sketch:type="MSShapeGroup"></path>
                        <path d="M62.691546,160.64711 C66.4622984,163.238465 67.4435683,168.434723 64.8851302,172.251755 C62.3258,176.06969 57.1937587,177.064142 53.4230063,174.47369" id="Fill-130" fill="#593737" sketch:type="MSShapeGroup"></path>
                        <path d="M28.7055327,167.332245 C28.7296184,162.639987 32.5066152,158.855471 37.1426692,158.879858 C41.7778311,158.905148 45.5164692,162.73031 45.4914914,167.423471 C45.4674057,172.117535 41.6886248,175.902052 37.0534629,175.876761 C32.4174089,175.852374 28.6805549,172.027213 28.7055327,167.332245" id="Fill-132" fill="#AB988E" sketch:type="MSShapeGroup"></path>
                        <path d="M41.9510698,160.64711 C45.7218222,163.238465 46.7030921,168.434723 44.144654,172.251755 C41.5853238,176.06969 36.4532825,177.064142 32.6825302,174.47369" id="Fill-134" fill="#593737" sketch:type="MSShapeGroup"></path>
                        <path d="M8.04525302,167.221058 C8.06933873,162.5288 11.8481197,158.743381 16.4823895,158.768671 C21.1184435,158.793961 24.8561895,162.619123 24.8321038,167.311381 C24.807126,172.006348 21.0292371,175.790865 16.3922911,175.765574 C11.7580213,175.740284 8.02027524,171.916026 8.04525302,167.221058" id="Fill-136" fill="#ECD1C3" sketch:type="MSShapeGroup"></path>
                        <path d="M21.2105937,160.534206 C24.981346,163.125561 25.9626159,168.321819 23.4041778,172.138852 C20.8448476,175.956787 15.7128063,176.951239 11.942054,174.360787" id="Fill-138" fill="#593737" sketch:type="MSShapeGroup"></path>
                    </g>
                </g>
            </g>
        </g>
    </g>
</svg>